<?xml version="1.0" encoding="utf-8"?>
<!-- Generator: Adobe Illustrator 19.2.1, SVG Export Plug-In . SVG Version: 6.00 Build 0)  -->
<svg version="1.1" id="圖層_1" xmlns="http://www.w3.org/2000/svg" xmlns:xlink="http://www.w3.org/1999/xlink" x="0px" y="0px"
	 viewBox="0 0 257 64" style="enable-background:new 0 0 257 64;" xml:space="preserve">
<style type="text/css">
	.st0{fill:url(#inner_2_);}
	.st1{fill:url(#outer_2_);}
	.st2{fill:url(#out_1_);}
	.st3{fill:url(#in_1_);}
	.st4{fill:none;stroke:#E7E9E6;stroke-width:0.6855;}
	.st5{fill:none;stroke:#E4E6E4;stroke-width:0.6855;}
	.st6{fill:none;stroke:#E1E4E1;stroke-width:0.6855;}
	.st7{fill:none;stroke:#DFE1DF;stroke-width:0.6855;}
	.st8{fill:none;stroke:#DCDEDC;stroke-width:0.6855;}
	.st9{fill:none;stroke:#D9DCDA;stroke-width:0.6855;}
	.st10{fill:none;stroke:#D6D9D7;stroke-width:0.6855;}
	.st11{fill:none;stroke:#D3D7D5;stroke-width:0.6855;}
	.st12{fill:none;stroke:#D0D4D2;stroke-width:0.6855;}
	.st13{fill:none;stroke:#CED1D0;stroke-width:0.6855;}
	.st14{fill:none;stroke:#CBCFCE;stroke-width:0.6855;}
	.st15{fill:none;stroke:#C8CCCB;stroke-width:0.6855;}
	.st16{fill:none;stroke:#C5C9C9;stroke-width:0.6855;}
	.st17{fill:none;stroke:#C2C7C6;stroke-width:0.6855;}
	.st18{fill:none;stroke:#C0C4C4;stroke-width:0.6855;}
	.st19{fill:none;stroke:#BDC1C1;stroke-width:0.6855;}
	.st20{fill:none;stroke:#BABFBF;stroke-width:0.6855;}
	.st21{fill:none;stroke:#B7BCBD;stroke-width:0.6855;}
	.st22{fill:none;stroke:#B4BABA;stroke-width:0.6855;}
	.st23{fill:none;stroke:#B1B7B8;stroke-width:0.6855;}
	.st24{fill:none;stroke:#AFB4B5;stroke-width:0.6855;}
	.st25{fill:none;stroke:#ACB2B3;stroke-width:0.6855;}
	.st26{fill:none;stroke:#A9AFB0;stroke-width:0.6855;}
	.st27{fill:none;stroke:#A6ACAE;stroke-width:0.6855;}
	.st28{fill:none;stroke:#A3AAAB;stroke-width:0.6855;}
	.st29{fill:none;stroke:#A1A7A9;stroke-width:0.6855;}
	.st30{fill:none;stroke:#9EA5A7;stroke-width:0.6855;}
	.st31{fill:none;stroke:#9BA2A4;stroke-width:0.6855;}
	.st32{fill:none;stroke:#989FA2;stroke-width:0.6855;}
	.st33{fill:none;stroke:#959D9F;stroke-width:0.6855;}
	.st34{fill:none;stroke:#929A9D;stroke-width:0.6855;}
	.st35{fill:none;stroke:#90979A;stroke-width:0.6855;}
	.st36{fill:none;stroke:#8D9598;stroke-width:0.6855;}
	.st37{fill:none;stroke:#8A9296;stroke-width:0.6855;}
	.st38{fill:none;stroke:#878F93;stroke-width:0.6855;}
	.st39{fill:none;stroke:#848D91;stroke-width:0.6855;}
	.st40{fill:none;stroke:#828A8E;stroke-width:0.6855;}
	.st41{fill:none;stroke:#7F888C;stroke-width:0.6855;}
	.st42{fill:none;stroke:#7C8589;stroke-width:0.6855;}
	.st43{fill:none;stroke:#798287;stroke-width:0.6855;}
	.st44{fill:none;stroke:#768084;stroke-width:0.6855;}
	.st45{fill:none;stroke:#737D82;stroke-width:0.6855;}
	.st46{fill:none;stroke:#717A80;stroke-width:0.6855;}
	.st47{fill:none;stroke:#6E787D;stroke-width:0.6855;}
	.st48{fill:none;stroke:#6B757B;stroke-width:0.6855;}
	.st49{fill:none;stroke:#687278;stroke-width:0.6855;}
	.st50{fill:none;stroke:#657076;stroke-width:0.6855;}
	.st51{fill:none;stroke:#636D73;stroke-width:0.6855;}
	.st52{fill:none;stroke:#606B71;stroke-width:0.6855;}
	.st53{fill:none;stroke:#5D686E;stroke-width:0.6855;}
	.st54{fill:none;stroke:#5A656C;stroke-width:0.6855;}
	.st55{fill:none;stroke:#57636A;stroke-width:0.6855;}
	.st56{fill:none;stroke:#556067;stroke-width:0.6855;}
	.st57{fill:none;stroke:#525D65;stroke-width:0.6855;}
	.st58{fill:none;stroke:#4F5B62;stroke-width:0.6855;}
	.st59{fill:none;stroke:#4C5860;stroke-width:0.6855;}
	.st60{fill:none;stroke:#49555D;stroke-width:0.6855;}
	.st61{fill:none;stroke:#46535B;stroke-width:0.6855;}
	.st62{fill:none;stroke:#445059;stroke-width:0.6855;}
	.st63{fill:none;stroke:#414E56;stroke-width:0.6855;}
	.st64{fill:none;stroke:#3E4B54;stroke-width:0.6855;}
	.st65{fill:none;stroke:#3B4851;stroke-width:0.6855;}
	.st66{fill:none;stroke:#38464F;stroke-width:0.6855;}
	.st67{fill:none;stroke:#36434C;stroke-width:0.6855;}
	.st68{fill:none;stroke:#33404A;stroke-width:0.6855;}
	.st69{fill:none;stroke:#303E47;stroke-width:0.6855;}
	.st70{fill:none;stroke:#2D3B45;stroke-width:0.6855;}
	.st71{fill:none;stroke:#2A3943;stroke-width:0.6855;}
	.st72{fill:none;stroke:#273640;stroke-width:0.6855;}
	.st73{fill:none;stroke:#25333E;stroke-width:0.6855;}
	.st74{fill:none;stroke:#22313B;stroke-width:0.6855;}
	.st75{fill:none;stroke:#1F2E39;stroke-width:0.6855;}
	.st76{fill:none;stroke:#1C2B36;stroke-width:0.6855;}
	.st77{fill:none;stroke:#192934;stroke-width:0.6855;}
	.st78{fill:none;stroke:#172632;stroke-width:0.6855;}
	.st79{fill:none;stroke:#14232F;stroke-width:0.6855;}
	.st80{fill:none;stroke:#11212D;stroke-width:0.6855;}
	.st81{fill:none;stroke:#0E1E2A;stroke-width:0.6855;}
	.st82{fill:none;stroke:#0B1C28;stroke-width:0.6855;}
	.st83{fill:none;stroke:#081925;stroke-width:0.6855;}
	.st84{fill:none;stroke:#061623;stroke-width:0.6855;}
	.st85{fill:none;stroke:#031420;stroke-width:0.6855;}
	.st86{fill:none;stroke:#00111E;stroke-width:0.6855;}
	.st87{fill:none;stroke:#FBFBFB;stroke-width:0.7112;}
	.st88{fill:none;stroke:#F9F9F9;stroke-width:0.7099;}
	.st89{fill:none;stroke:#F7F7F7;stroke-width:0.7086;}
	.st90{fill:none;stroke:#F4F5F5;stroke-width:0.7074;}
	.st91{fill:none;stroke:#F2F3F3;stroke-width:0.7061;}
	.st92{fill:none;stroke:#F0F1F1;stroke-width:0.7048;}
	.st93{fill:none;stroke:#EEEFEF;stroke-width:0.7035;}
	.st94{fill:none;stroke:#ECEDED;stroke-width:0.7023;}
	.st95{fill:none;stroke:#E9EBEB;stroke-width:0.701;}
	.st96{fill:none;stroke:#E7E9E9;stroke-width:0.6997;}
	.st97{fill:none;stroke:#E5E7E7;stroke-width:0.6984;}
	.st98{fill:none;stroke:#E3E4E6;stroke-width:0.6971;}
	.st99{fill:none;stroke:#E1E2E4;stroke-width:0.6959;}
	.st100{fill:none;stroke:#DEE0E2;stroke-width:0.6946;}
	.st101{fill:none;stroke:#DCDEE0;stroke-width:0.6933;}
	.st102{fill:none;stroke:#DADCDE;stroke-width:0.692;}
	.st103{fill:none;stroke:#D8DADC;stroke-width:0.6908;}
	.st104{fill:none;stroke:#D6D8DA;stroke-width:0.6895;}
	.st105{fill:none;stroke:#D3D6D8;stroke-width:0.6882;}
	.st106{fill:none;stroke:#D1D4D6;stroke-width:0.6869;}
	.st107{fill:none;stroke:#CFD2D4;stroke-width:0.6856;}
	.st108{fill:none;stroke:#CDD0D2;stroke-width:0.6844;}
	.st109{fill:none;stroke:#CBCED0;stroke-width:0.6831;}
	.st110{fill:none;stroke:#C8CCCE;stroke-width:0.6818;}
	.st111{fill:none;stroke:#C6CACC;stroke-width:0.6805;}
	.st112{fill:none;stroke:#C4C8CA;stroke-width:0.6793;}
	.st113{fill:none;stroke:#C2C6C8;stroke-width:0.678;}
	.st114{fill:none;stroke:#C0C4C6;stroke-width:0.6767;}
	.st115{fill:none;stroke:#BDC2C4;stroke-width:0.6754;}
	.st116{fill:none;stroke:#BBC0C2;stroke-width:0.6741;}
	.st117{fill:none;stroke:#B9BEC0;stroke-width:0.6729;}
	.st118{fill:none;stroke:#B7BCBE;stroke-width:0.6716;}
	.st119{fill:none;stroke:#B5B9BD;stroke-width:0.6703;}
	.st120{fill:none;stroke:#B2B7BB;stroke-width:0.669;}
	.st121{fill:none;stroke:#B0B5B9;stroke-width:0.6677;}
	.st122{fill:none;stroke:#AEB3B7;stroke-width:0.6665;}
	.st123{fill:none;stroke:#ACB1B5;stroke-width:0.6652;}
	.st124{fill:none;stroke:#AAAFB3;stroke-width:0.6639;}
	.st125{fill:none;stroke:#A7ADB1;stroke-width:0.6626;}
	.st126{fill:none;stroke:#A5ABAF;stroke-width:0.6614;}
	.st127{fill:none;stroke:#A3A9AD;stroke-width:0.6601;}
	.st128{fill:none;stroke:#A1A7AB;stroke-width:0.6588;}
	.st129{fill:none;stroke:#9FA5A9;stroke-width:0.6575;}
	.st130{fill:none;stroke:#9CA3A7;stroke-width:0.6562;}
	.st131{fill:none;stroke:#9AA1A5;stroke-width:0.655;}
	.st132{fill:none;stroke:#989FA3;stroke-width:0.6537;}
	.st133{fill:none;stroke:#969DA1;stroke-width:0.6524;}
	.st134{fill:none;stroke:#949B9F;stroke-width:0.6511;}
	.st135{fill:none;stroke:#91999D;stroke-width:0.6499;}
	.st136{fill:none;stroke:#8F979B;stroke-width:0.6486;}
	.st137{fill:none;stroke:#8D9599;stroke-width:0.6473;}
	.st138{fill:none;stroke:#8B9397;stroke-width:0.646;}
	.st139{fill:none;stroke:#899195;stroke-width:0.6447;}
	.st140{fill:none;stroke:#868E94;stroke-width:0.6435;}
	.st141{fill:none;stroke:#848C92;stroke-width:0.6422;}
	.st142{fill:none;stroke:#828A90;stroke-width:0.6409;}
	.st143{fill:none;stroke:#80888E;stroke-width:0.6396;}
	.st144{fill:none;stroke:#7D868C;stroke-width:0.6383;}
	.st145{fill:none;stroke:#7B848A;stroke-width:0.6371;}
	.st146{fill:none;stroke:#798288;stroke-width:0.6358;}
	.st147{fill:none;stroke:#778086;stroke-width:0.6345;}
	.st148{fill:none;stroke:#757E84;stroke-width:0.6332;}
	.st149{fill:none;stroke:#727C82;stroke-width:0.632;}
	.st150{fill:none;stroke:#707A80;stroke-width:0.6307;}
	.st151{fill:none;stroke:#6E787E;stroke-width:0.6294;}
	.st152{fill:none;stroke:#6C767C;stroke-width:0.6281;}
	.st153{fill:none;stroke:#6A747A;stroke-width:0.6268;}
	.st154{fill:none;stroke:#677278;stroke-width:0.6256;}
	.st155{fill:none;stroke:#657076;stroke-width:0.6243;}
	.st156{fill:none;stroke:#636E74;stroke-width:0.623;}
	.st157{fill:none;stroke:#616C72;stroke-width:0.6217;}
	.st158{fill:none;stroke:#5F6A70;stroke-width:0.6205;}
	.st159{fill:none;stroke:#5C686E;stroke-width:0.6192;}
	.st160{fill:none;stroke:#5A656D;stroke-width:0.6179;}
	.st161{fill:none;stroke:#58636B;stroke-width:0.6166;}
	.st162{fill:none;stroke:#566169;stroke-width:0.6153;}
	.st163{fill:none;stroke:#545F67;stroke-width:0.6141;}
	.st164{fill:none;stroke:#515D65;stroke-width:0.6128;}
	.st165{fill:none;stroke:#4F5B63;stroke-width:0.6115;}
	.st166{fill:none;stroke:#4D5961;stroke-width:0.6102;}
	.st167{fill:none;stroke:#4B575F;stroke-width:0.609;}
	.st168{fill:none;stroke:#49555D;stroke-width:0.6077;}
	.st169{fill:none;stroke:#46535B;stroke-width:0.6064;}
	.st170{fill:none;stroke:#445159;stroke-width:0.6051;}
	.st171{fill:none;stroke:#424F57;stroke-width:0.6038;}
	.st172{fill:none;stroke:#404D55;stroke-width:0.6026;}
	.st173{fill:none;stroke:#3E4B53;stroke-width:0.6013;}
	.st174{fill:none;stroke:#3B4951;stroke-width:0.6;}
	.st175{fill:none;stroke:#39474F;stroke-width:0.5987;}
	.st176{fill:none;stroke:#37454D;stroke-width:0.5974;}
	.st177{fill:none;stroke:#35434B;stroke-width:0.5962;}
	.st178{fill:none;stroke:#334149;stroke-width:0.5949;}
	.st179{fill:none;stroke:#303F47;stroke-width:0.5936;}
	.st180{fill:none;stroke:#2E3D45;stroke-width:0.5923;}
	.st181{fill:none;stroke:#2C3A44;stroke-width:0.5911;}
	.st182{fill:none;stroke:#2A3842;stroke-width:0.5898;}
	.st183{fill:none;stroke:#283640;stroke-width:0.5885;}
	.st184{fill:none;stroke:#25343E;stroke-width:0.5872;}
	.st185{fill:none;stroke:#23323C;stroke-width:0.5859;}
	.st186{fill:none;stroke:#21303A;stroke-width:0.5847;}
	.st187{fill:none;stroke:#1F2E38;stroke-width:0.5834;}
	.st188{fill:none;stroke:#1D2C36;stroke-width:0.5821;}
	.st189{fill:none;stroke:#1A2A34;stroke-width:0.5808;}
	.st190{fill:none;stroke:#182832;stroke-width:0.5796;}
	.st191{fill:none;stroke:#162630;stroke-width:0.5783;}
	.st192{fill:url(#L_short_2_);}
	.st193{fill:url(#R_2_);}
	.st194{display:none;fill:#00111E;}
	.st195{fill:#FFFFFF;}
	.st196{fill:url(#SVGID_1_);}
	.st197{fill:url(#SVGID_2_);}
	.st198{fill:#00111E;}
	.st199{fill:#01121F;}
	.st200{fill:#021320;}
	.st201{fill:#031420;}
	.st202{fill:#041521;}
	.st203{fill:#051622;}
	.st204{fill:#061623;}
	.st205{fill:#071724;}
	.st206{fill:#081825;}
	.st207{fill:#091925;}
	.st208{fill:#0A1A26;}
	.st209{fill:#0B1B27;}
	.st210{fill:#0C1C28;}
	.st211{fill:#0D1D29;}
	.st212{fill:#0E1E2A;}
	.st213{fill:#0F1F2A;}
	.st214{fill:#10202B;}
	.st215{fill:#11202C;}
	.st216{fill:#12212D;}
	.st217{fill:#13222E;}
	.st218{fill:#14232F;}
	.st219{fill:#15242F;}
	.st220{fill:#162530;}
	.st221{fill:#172631;}
	.st222{fill:#182732;}
	.st223{fill:#192833;}
	.st224{fill:#1A2934;}
	.st225{fill:#1B2A34;}
	.st226{fill:#1C2A35;}
	.st227{fill:#1D2B36;}
	.st228{fill:#1E2C37;}
	.st229{fill:#1F2D38;}
	.st230{fill:#202E39;}
	.st231{fill:#212F39;}
	.st232{fill:#22303A;}
	.st233{fill:#23313B;}
	.st234{fill:#24323C;}
	.st235{fill:#25333D;}
	.st236{fill:#26333E;}
	.st237{fill:#27343E;}
	.st238{fill:#28353F;}
	.st239{fill:#293640;}
	.st240{fill:#2A3741;}
	.st241{fill:#2B3842;}
	.st242{fill:#2C3943;}
	.st243{fill:#2D3A43;}
	.st244{fill:#2E3B44;}
	.st245{fill:#2F3C45;}
	.st246{fill:#303D46;}
	.st247{fill:#313D47;}
	.st248{fill:#323E48;}
	.st249{fill:#333F48;}
	.st250{fill:#344049;}
	.st251{fill:#35414A;}
	.st252{fill:#36424B;}
	.st253{fill:#36434C;}
	.st254{fill:#37444D;}
	.st255{fill:#38454D;}
	.st256{fill:#39464E;}
	.st257{fill:#3A474F;}
	.st258{fill:#3B4750;}
	.st259{fill:#3C4851;}
	.st260{fill:#3D4952;}
	.st261{fill:#3E4A52;}
	.st262{fill:#3F4B53;}
	.st263{fill:#404C54;}
	.st264{fill:#414D55;}
	.st265{fill:#424E56;}
	.st266{fill:#434F57;}
	.st267{fill:#445057;}
	.st268{fill:#455158;}
	.st269{fill:#465159;}
	.st270{fill:#47525A;}
	.st271{fill:#48535B;}
	.st272{fill:#49545C;}
	.st273{fill:#4A555C;}
	.st274{fill:#4B565D;}
	.st275{fill:#4C575E;}
	.st276{fill:#4D585F;}
	.st277{fill:#4E5960;}
	.st278{fill:#4F5A61;}
	.st279{fill:#505A61;}
	.st280{fill:#515B62;}
	.st281{fill:#525C63;}
	.st282{fill:#535D64;}
	.st283{fill:#545E65;}
	.st284{fill:#555F66;}
	.st285{fill:#566066;}
	.st286{fill:#576167;}
	.st287{fill:#586268;}
	.st288{fill:#596369;}
	.st289{fill:#5A646A;}
	.st290{fill:#5B646B;}
	.st291{fill:#5C656B;}
	.st292{fill:#5D666C;}
	.st293{fill:#5E676D;}
	.st294{fill:#5F686E;}
	.st295{fill:#60696F;}
	.st296{fill:#616A70;}
	.st297{fill:#626B70;}
	.st298{fill:#636C71;}
	.st299{fill:#646D72;}
	.st300{fill:#656E73;}
	.st301{fill:#666E74;}
	.st302{fill:#676F75;}
	.st303{fill:#687075;}
	.st304{fill:#697176;}
	.st305{fill:#6A7277;}
	.st306{fill:#6B7378;}
	.st307{fill:#586369;}
	.st308{fill:#576268;}
	.st309{fill:#566167;}
	.st310{fill:#556066;}
	.st311{fill:#545F65;}
	.st312{fill:#535E65;}
	.st313{fill:#525D64;}
	.st314{fill:#515C63;}
	.st315{fill:#505C62;}
	.st316{fill:#4F5B61;}
	.st317{fill:#4E5A60;}
	.st318{fill:#4D595F;}
	.st319{fill:#4C585E;}
	.st320{fill:#4B575E;}
	.st321{fill:#4A565D;}
	.st322{fill:#49555C;}
	.st323{fill:#48545B;}
	.st324{fill:#47535A;}
	.st325{fill:#465259;}
	.st326{fill:#424F56;}
	.st327{fill:#414E55;}
	.st328{fill:#404D54;}
	.st329{fill:#3F4C53;}
	.st330{fill:#3E4B52;}
	.st331{fill:#3D4A51;}
	.st332{fill:#3C4950;}
	.st333{fill:#3C4850;}
	.st334{fill:#3B474F;}
	.st335{fill:#3A464E;}
	.st336{fill:#39454D;}
	.st337{fill:#38444C;}
	.st338{fill:#37434B;}
	.st339{fill:#36424A;}
	.st340{fill:#354149;}
	.st341{fill:#344148;}
	.st342{fill:#334048;}
	.st343{fill:#323F47;}
	.st344{fill:#313E46;}
	.st345{fill:#303D45;}
	.st346{fill:#2F3C44;}
	.st347{fill:#2E3B43;}
	.st348{fill:#2D3A42;}
	.st349{fill:#2C3941;}
	.st350{fill:#2B3841;}
	.st351{fill:#2A3740;}
	.st352{fill:#29363F;}
	.st353{fill:#28353E;}
	.st354{fill:#27343D;}
	.st355{fill:#26343C;}
	.st356{fill:#25333B;}
	.st357{fill:#24323A;}
	.st358{fill:#23313A;}
	.st359{fill:#223039;}
	.st360{fill:#212F38;}
	.st361{fill:#202E37;}
	.st362{fill:#1F2D36;}
	.st363{fill:#051522;}
	.st364{fill:#081824;}
	.st365{fill:#0D1C28;}
	.st366{fill:#0E1D29;}
	.st367{fill:#0F1E2A;}
	.st368{fill:#101F2B;}
	.st369{fill:#12212C;}
	.st370{fill:#13222D;}
	.st371{fill:#14232E;}
	.st372{fill:#16242F;}
	.st373{fill:#172530;}
	.st374{fill:#182631;}
	.st375{fill:#192732;}
	.st376{fill:#1A2833;}
	.st377{fill:#1B2933;}
	.st378{fill:#1C2A34;}
	.st379{fill:#1D2B35;}
	.st380{fill:#1E2B36;}
	.st381{fill:#1F2C37;}
	.st382{fill:#202D37;}
	.st383{fill:#212E38;}
	.st384{fill:#24323B;}
	.st385{fill:#25333C;}
	.st386{fill:#26333D;}
	.st387{fill:#2C3942;}
	.st388{fill:#2E3A43;}
	.st389{fill:#2F3B44;}
	.st390{fill:#303C45;}
	.st391{fill:#313D46;}
	.st392{fill:#323E47;}
	.st393{fill:#333F47;}
	.st394{fill:#344048;}
	.st395{fill:#37424A;}
	.st396{fill:#38434B;}
	.st397{fill:#39444C;}
	.st398{fill:#3A454D;}
	.st399{fill:#3B464E;}
	.st400{fill:#3C474E;}
	.st401{fill:#3D484F;}
	.st402{fill:#3E4950;}
	.st403{fill:#3F4951;}
	.st404{fill:#404A52;}
	.st405{fill:#414B52;}
	.st406{fill:#424C53;}
	.st407{fill:#434D54;}
	.st408{fill:url(#SVGID_3_);}
	.st409{fill:url(#SVGID_4_);}
	.st410{fill:url(#SVGID_5_);}
	.st411{fill:#A5ABAF;}
	.st412{fill:#3B474E;}
	.st413{fill:url(#thong_1_);}
</style>
<g id="body_2_">
	<linearGradient id="inner_2_" gradientUnits="userSpaceOnUse" x1="7.8917" y1="11.766" x2="56.0485" y2="52.1744">
		<stop  offset="3.000000e-02" style="stop-color:#0B1F2A"/>
		<stop  offset="0.1662" style="stop-color:#333F47"/>
		<stop  offset="0.5" style="stop-color:#B2B7BA"/>
		<stop  offset="0.5087" style="stop-color:#B3B8BB"/>
		<stop  offset="0.7172" style="stop-color:#D2D5D4"/>
		<stop  offset="0.8338" style="stop-color:#DEE0DD"/>
		<stop  offset="0.9505" style="stop-color:#FFFFFF"/>
	</linearGradient>
	<path id="inner_1_" class="st0" d="M59.6,32c0,15.3-12.4,27.7-27.7,27.7C16.7,59.6,4.3,47.2,4.3,32C4.3,16.7,16.7,4.3,32,4.3
		C47.2,4.3,59.6,16.7,59.6,32z M32,0.5C14.6,0.5,0.5,14.6,0.5,32c0,17.4,14.1,31.4,31.4,31.4c17.4,0,31.4-14.1,31.4-31.4
		C63.4,14.6,49.3,0.5,32,0.5z"/>
	<linearGradient id="outer_2_" gradientUnits="userSpaceOnUse" x1="5.3112" y1="15.3118" x2="58.629" y2="48.6285">
		<stop  offset="3.000000e-02" style="stop-color:#FFFFFF"/>
		<stop  offset="0.1965" style="stop-color:#F1F0EB"/>
		<stop  offset="0.1987" style="stop-color:#F0EFEA"/>
		<stop  offset="0.2869" style="stop-color:#CFD1D0"/>
		<stop  offset="0.3603" style="stop-color:#BABEC0"/>
		<stop  offset="0.4092" style="stop-color:#B3B7BA"/>
		<stop  offset="0.4608" style="stop-color:#959B9F"/>
		<stop  offset="0.534" style="stop-color:#727A80"/>
		<stop  offset="0.6081" style="stop-color:#566067"/>
		<stop  offset="0.6825" style="stop-color:#434E55"/>
		<stop  offset="0.7574" style="stop-color:#37434B"/>
		<stop  offset="0.8338" style="stop-color:#333F47"/>
		<stop  offset="0.97" style="stop-color:#485258"/>
	</linearGradient>
	<path id="outer_1_" class="st1" d="M63.4,32c0,17.4-14.1,31.4-31.4,31.4C14.6,63.4,0.5,49.3,0.5,32C0.5,14.6,14.6,0.5,32,0.5
		C49.3,0.5,63.4,14.6,63.4,32z M32,2.4C15.7,2.4,2.4,15.7,2.4,32c0,16.3,13.2,29.5,29.5,29.5c16.3,0,29.5-13.2,29.5-29.5
		C61.5,15.7,48.3,2.4,32,2.4z"/>
</g>
<g id="gloss_2_">
	<linearGradient id="out_1_" gradientUnits="userSpaceOnUse" x1="47.6857" y1="0.5388" x2="47.6857" y2="63.4015">
		<stop  offset="0" style="stop-color:#DEE0DD"/>
		<stop  offset="3.000000e-02" style="stop-color:#6B7378"/>
		<stop  offset="0.1662" style="stop-color:#333F47"/>
		<stop  offset="0.5" style="stop-color:#27343C"/>
		<stop  offset="0.8338" style="stop-color:#333F47"/>
		<stop  offset="0.97" style="stop-color:#333F47"/>
	</linearGradient>
	<path id="out_2_" class="st2" d="M32,61.8c16.9,0,30.5-13.7,30.5-30.5C62.5,14.4,48.8,0.7,32,0.7V0.5c17.4,0,31.4,14.1,31.4,31.4
		c0,17.4-14.1,31.4-31.4,31.4V61.8z"/>
	<linearGradient id="in_1_" gradientUnits="userSpaceOnUse" x1="-5.9913" y1="25.4809" x2="38.4594" y2="69.9315">
		<stop  offset="0.1662" style="stop-color:#162630"/>
		<stop  offset="0.4589" style="stop-color:#333F47"/>
		<stop  offset="0.8338" style="stop-color:#E1E3E1"/>
	</linearGradient>
	<path id="in_2_" class="st3" d="M4.8,26.9c-0.3,1.7-0.5,3.4-0.5,5.1c0,15.3,12.4,27.7,27.7,27.7v1.7C17.3,61.3,3.1,48.5,4,33.3
		C4.2,31.1,4.3,28.9,4.8,26.9z"/>
</g>
<g>
	<g>
		<path class="st4" d="M59.3,28.4c0.1,2.5,0.2,5.1,0.6,5.8c0.5,0.8,1,1.5,0.6,4.2"/>
		<path class="st5" d="M59.3,28.4c0.1,2.4,0.2,5,0.6,5.8c0.5,0.8,1,1.5,0.6,4.2"/>
		<path class="st6" d="M59.3,28.4c0.1,2.4,0.2,5,0.6,5.7c0.5,0.8,1,1.5,0.6,4.2"/>
		<path class="st7" d="M59.3,28.4c0.1,2.4,0.2,4.9,0.6,5.7c0.5,0.8,1,1.5,0.6,4.2"/>
		<path class="st8" d="M59.3,28.4c0.1,2.4,0.2,4.9,0.6,5.6c0.5,0.8,1,1.5,0.6,4.1"/>
		<path class="st9" d="M59.3,28.4c0.1,2.4,0.2,4.9,0.7,5.6c0.5,0.8,1,1.5,0.6,4.1"/>
		<path class="st10" d="M59.3,28.4c0.1,2.3,0.2,4.8,0.7,5.5c0.5,0.8,1,1.5,0.6,4.1"/>
		<path class="st11" d="M59.3,28.4c0.1,2.3,0.2,4.8,0.7,5.5c0.5,0.8,1,1.5,0.6,4"/>
		<path class="st12" d="M59.4,28.4c0.1,2.3,0.2,4.7,0.7,5.4c0.5,0.8,1,1.5,0.6,4"/>
		<path class="st13" d="M59.4,28.4c0.1,2.3,0.2,4.7,0.7,5.4c0.5,0.8,1,1.4,0.6,4"/>
		<path class="st14" d="M59.4,28.4c0.1,2.3,0.2,4.6,0.7,5.4c0.5,0.8,1,1.4,0.6,4"/>
		<path class="st15" d="M59.4,28.4c0.1,2.3,0.2,4.6,0.7,5.3c0.5,0.8,1,1.4,0.6,3.9"/>
		<path class="st16" d="M59.4,28.4c0.1,2.2,0.2,4.5,0.7,5.3c0.5,0.8,1,1.4,0.6,3.9"/>
		<path class="st17" d="M59.4,28.4c0.1,2.2,0.2,4.5,0.7,5.2c0.5,0.8,1,1.4,0.6,3.9"/>
		<path class="st18" d="M59.4,28.4c0.1,2.2,0.3,4.5,0.7,5.2c0.5,0.8,1,1.4,0.6,3.8"/>
		<path class="st19" d="M59.4,28.4c0.1,2.2,0.3,4.4,0.7,5.1c0.5,0.8,0.9,1.4,0.6,3.8"/>
		<path class="st20" d="M59.4,28.4c0.1,2.2,0.3,4.4,0.7,5.1c0.5,0.8,0.9,1.4,0.6,3.8"/>
		<path class="st21" d="M59.4,28.4c0.1,2.2,0.3,4.3,0.7,5c0.5,0.8,0.9,1.4,0.6,3.7"/>
		<path class="st22" d="M59.4,28.4c0.1,2.1,0.3,4.3,0.7,5c0.5,0.7,0.9,1.4,0.6,3.7"/>
		<path class="st23" d="M59.4,28.4c0.1,2.1,0.3,4.2,0.8,5c0.5,0.7,0.9,1.4,0.6,3.7"/>
		<path class="st24" d="M59.4,28.4c0.1,2.1,0.3,4.2,0.8,4.9c0.5,0.7,0.9,1.4,0.6,3.7"/>
		<path class="st25" d="M59.4,28.4c0.1,2.1,0.3,4.1,0.8,4.9c0.5,0.7,0.9,1.4,0.6,3.6"/>
		<path class="st26" d="M59.4,28.4c0.1,2.1,0.3,4.1,0.8,4.8c0.5,0.7,0.9,1.4,0.6,3.6"/>
		<path class="st27" d="M59.4,28.4c0.1,2,0.3,4.1,0.8,4.8c0.5,0.7,0.9,1.4,0.6,3.6"/>
		<path class="st28" d="M59.4,28.4c0.1,2,0.3,4,0.8,4.7c0.5,0.7,0.9,1.4,0.6,3.5"/>
		<path class="st29" d="M59.4,28.4c0.1,2,0.3,4,0.8,4.7c0.5,0.7,0.9,1.3,0.6,3.5"/>
		<path class="st30" d="M59.4,28.4c0.1,2,0.3,3.9,0.8,4.6c0.5,0.7,0.9,1.3,0.6,3.5"/>
		<path class="st31" d="M59.4,28.4c0.1,2,0.3,3.9,0.8,4.6c0.4,0.7,0.9,1.3,0.6,3.4"/>
		<path class="st32" d="M59.4,28.4c0.1,2,0.4,3.8,0.8,4.6c0.4,0.7,0.9,1.3,0.6,3.4"/>
		<path class="st33" d="M59.4,28.4c0.1,1.9,0.4,3.8,0.8,4.5c0.4,0.7,0.9,1.3,0.6,3.4"/>
		<path class="st34" d="M59.4,28.4c0.1,1.9,0.4,3.8,0.8,4.5c0.4,0.7,0.9,1.3,0.6,3.4"/>
		<path class="st35" d="M59.5,28.3c0.1,1.9,0.4,3.7,0.8,4.4c0.4,0.7,0.8,1.3,0.6,3.3"/>
		<path class="st36" d="M59.5,28.3c0.1,1.9,0.4,3.7,0.8,4.4c0.4,0.7,0.8,1.3,0.6,3.3"/>
		<path class="st37" d="M59.5,28.3c0.1,1.9,0.4,3.6,0.8,4.3c0.4,0.7,0.8,1.3,0.6,3.3"/>
		<path class="st38" d="M59.5,28.3c0.1,1.8,0.4,3.6,0.9,4.3c0.4,0.7,0.8,1.3,0.6,3.2"/>
		<path class="st39" d="M59.5,28.3c0.1,1.8,0.4,3.5,0.9,4.2c0.4,0.7,0.8,1.3,0.6,3.2"/>
		<path class="st40" d="M59.5,28.3c0.1,1.8,0.4,3.5,0.9,4.2c0.4,0.7,0.8,1.3,0.6,3.2"/>
		<path class="st41" d="M59.5,28.3c0.1,1.8,0.4,3.4,0.9,4.2c0.4,0.7,0.8,1.3,0.6,3.2"/>
		<path class="st42" d="M59.5,28.3c0.1,1.8,0.4,3.4,0.9,4.1c0.4,0.7,0.8,1.3,0.6,3.1"/>
		<path class="st43" d="M59.5,28.3c0.1,1.8,0.4,3.4,0.9,4.1c0.4,0.7,0.8,1.3,0.6,3.1"/>
		<path class="st44" d="M59.5,28.3c0.1,1.7,0.4,3.3,0.9,4c0.4,0.6,0.8,1.3,0.6,3.1"/>
		<path class="st45" d="M59.5,28.3c0.1,1.7,0.4,3.3,0.9,4c0.4,0.6,0.8,1.2,0.6,3"/>
		<path class="st46" d="M59.5,28.3c0.1,1.7,0.5,3.2,0.9,3.9c0.4,0.6,0.8,1.2,0.6,3"/>
		<path class="st47" d="M59.5,28.3c0.1,1.7,0.5,3.2,0.9,3.9c0.4,0.6,0.8,1.2,0.6,3"/>
		<path class="st48" d="M59.5,28.3c0.1,1.7,0.5,3.1,0.9,3.8c0.4,0.6,0.8,1.2,0.6,2.9"/>
		<path class="st49" d="M59.5,28.3c0.1,1.6,0.5,3.1,0.9,3.8c0.4,0.6,0.8,1.2,0.6,2.9"/>
		<path class="st50" d="M59.5,28.3c0.1,1.6,0.5,3,0.9,3.8c0.4,0.6,0.8,1.2,0.5,2.9"/>
		<path class="st51" d="M59.5,28.3c0.1,1.6,0.5,3,0.9,3.7c0.4,0.6,0.8,1.2,0.5,2.9"/>
		<path class="st52" d="M59.5,28.3c0.1,1.6,0.5,3,1,3.7c0.4,0.6,0.7,1.2,0.5,2.8"/>
		<path class="st53" d="M59.5,28.3c0.1,1.6,0.5,2.9,1,3.6c0.4,0.6,0.7,1.2,0.5,2.8"/>
		<path class="st54" d="M59.5,28.3c0.1,1.6,0.5,2.9,1,3.6c0.4,0.6,0.7,1.2,0.5,2.8"/>
		<path class="st55" d="M59.5,28.3c0.1,1.5,0.5,2.8,1,3.5c0.4,0.6,0.7,1.2,0.5,2.7"/>
		<path class="st56" d="M59.5,28.3c0.1,1.5,0.5,2.8,1,3.5c0.4,0.6,0.7,1.2,0.5,2.7"/>
		<path class="st57" d="M59.5,28.3c0.1,1.5,0.5,2.7,1,3.4c0.4,0.6,0.7,1.2,0.5,2.7"/>
		<path class="st58" d="M59.6,28.3c0.1,1.5,0.5,2.7,1,3.4c0.4,0.6,0.7,1.2,0.5,2.6"/>
		<path class="st59" d="M59.6,28.3c0.1,1.5,0.5,2.7,1,3.4c0.4,0.6,0.7,1.2,0.5,2.6"/>
		<path class="st60" d="M59.6,28.3c0.1,1.4,0.6,2.6,1,3.3c0.4,0.6,0.7,1.2,0.5,2.6"/>
		<path class="st61" d="M59.6,28.3c0.1,1.4,0.6,2.6,1,3.3c0.4,0.6,0.7,1.1,0.5,2.6"/>
		<path class="st62" d="M59.6,28.3c0.1,1.4,0.6,2.5,1,3.2c0.4,0.6,0.7,1.1,0.5,2.5"/>
		<path class="st63" d="M59.6,28.3c0.1,1.4,0.6,2.5,1,3.2c0.4,0.6,0.7,1.1,0.5,2.5"/>
		<path class="st64" d="M59.6,28.3c0.1,1.4,0.6,2.4,1,3.1c0.4,0.6,0.7,1.1,0.5,2.5"/>
		<path class="st65" d="M59.6,28.3c0.1,1.4,0.6,2.4,1,3.1c0.4,0.5,0.7,1.1,0.5,2.4"/>
		<path class="st66" d="M59.6,28.3c0.1,1.3,0.6,2.3,1.1,3c0.4,0.5,0.7,1.1,0.5,2.4"/>
		<path class="st67" d="M59.6,28.3c0.1,1.3,0.6,2.3,1.1,3c0.4,0.5,0.7,1.1,0.5,2.4"/>
		<path class="st68" d="M59.6,28.3c0.1,1.3,0.6,2.3,1.1,3c0.3,0.5,0.6,1.1,0.5,2.4"/>
		<path class="st69" d="M59.6,28.3c0.1,1.3,0.6,2.2,1.1,2.9c0.3,0.5,0.6,1.1,0.5,2.3"/>
		<path class="st70" d="M59.6,28.3c0.1,1.3,0.6,2.2,1.1,2.9c0.3,0.5,0.6,1.1,0.5,2.3"/>
		<path class="st71" d="M59.6,28.3c0.1,1.2,0.6,2.1,1.1,2.8c0.3,0.5,0.6,1.1,0.5,2.3"/>
		<path class="st72" d="M59.6,28.3c0.1,1.2,0.6,2.1,1.1,2.8c0.3,0.5,0.6,1.1,0.5,2.2"/>
		<path class="st73" d="M59.6,28.3c0.1,1.2,0.6,2,1.1,2.7c0.3,0.5,0.6,1.1,0.5,2.2"/>
		<path class="st74" d="M59.6,28.3c0.1,1.2,0.6,2,1.1,2.7c0.3,0.5,0.6,1.1,0.5,2.2"/>
		<path class="st75" d="M59.6,28.3c0.1,1.2,0.7,1.9,1.1,2.6c0.3,0.5,0.6,1.1,0.5,2.1"/>
		<path class="st76" d="M59.6,28.3c0.1,1.2,0.7,1.9,1.1,2.6c0.3,0.5,0.6,1.1,0.5,2.1"/>
		<path class="st77" d="M59.6,28.3c0.1,1.1,0.7,1.9,1.1,2.6c0.3,0.5,0.6,1,0.5,2.1"/>
		<path class="st78" d="M59.6,28.3c0.1,1.1,0.7,1.8,1.1,2.5c0.3,0.5,0.6,1,0.5,2.1"/>
		<path class="st79" d="M59.6,28.3c0.1,1.1,0.7,1.8,1.1,2.5c0.3,0.5,0.6,1,0.5,2"/>
		<path class="st80" d="M59.7,28.3c0.1,1.1,0.7,1.7,1.2,2.4c0.3,0.5,0.6,1,0.5,2"/>
		<path class="st81" d="M59.7,28.3c0.1,1.1,0.7,1.7,1.2,2.4c0.3,0.5,0.6,1,0.5,2"/>
		<path class="st82" d="M59.7,28.3c0.1,1,0.7,1.6,1.2,2.3c0.3,0.5,0.6,1,0.5,1.9"/>
		<path class="st83" d="M59.7,28.3c0.1,1,0.7,1.6,1.2,2.3c0.3,0.5,0.6,1,0.5,1.9"/>
		<path class="st84" d="M59.7,28.3c0.1,1,0.7,1.6,1.2,2.2c0.3,0.5,0.5,1,0.5,1.9"/>
		<path class="st85" d="M59.7,28.3c0.1,1,0.7,1.5,1.2,2.2c0.3,0.5,0.5,1,0.5,1.8"/>
		<path class="st86" d="M59.7,28.3c0.2,1.6,1.7,1.9,1.7,4"/>
	</g>
</g>
<g id="Angleichen_aus_11">
	<path class="st87" d="M3,25c-0.4,2.8-3.4,2.6-2.5,7.4c0,0,0.1,4,0.6,5.2"/>
	<path class="st88" d="M2.9,25c-0.2,1.5-1.2,2.1-1.9,3.2c-0.6,0.9-1,2-0.7,4.2c0,0,0,0.5,0.1,1.1c0.1,1.3,0.3,3.3,0.6,4.1"/>
	<path class="st89" d="M2.9,25c-0.2,1.5-1.2,2.1-1.9,3.2c-0.6,0.9-1,2-0.7,4.2c0,0,0,0.5,0.1,1.1c0.1,1.3,0.3,3.2,0.6,4.1"/>
	<path class="st90" d="M2.9,25.1c-0.2,1.5-1.1,2.1-1.8,3.1c-0.6,0.9-1,2-0.7,4.2c0,0,0,0.5,0,1.1c0.1,1.3,0.3,3.2,0.6,4"/>
	<path class="st91" d="M2.9,25.1c-0.2,1.5-1.1,2.1-1.8,3.1c-0.6,0.9-1,2-0.7,4.2c0,0,0,0.5,0,1.1c0.1,1.2,0.3,3.2,0.6,4"/>
	<path class="st92" d="M2.9,25.1c-0.2,1.4-1.1,2.1-1.8,3.1c-0.6,0.9-1,2-0.7,4.2c0,0,0,0.5,0,1.1c0.1,1.2,0.3,3.2,0.6,4"/>
	<path class="st93" d="M2.9,25.1c-0.2,1.4-1.1,2.1-1.8,3.1c-0.6,0.9-1,2-0.7,4.1c0,0,0,0.5,0,1.1c0.1,1.2,0.3,3.2,0.5,4"/>
	<path class="st94" d="M2.9,25.2c-0.2,1.4-1.1,2.1-1.8,3.1c-0.6,0.9-1,2-0.7,4.1c0,0,0,0.5,0,1.1c0.1,1.2,0.3,3.2,0.5,4"/>
	<path class="st95" d="M2.9,25.2c-0.2,1.4-1.1,2.1-1.8,3.1c-0.6,0.9-1,2-0.7,4.1c0,0,0,0.5,0,1.1c0.1,1.2,0.3,3.1,0.5,3.9"/>
	<path class="st96" d="M2.9,25.2c-0.2,1.4-1.1,2.1-1.7,3.1c-0.6,0.9-1,2-0.7,4.1c0,0,0,0.5,0,1.1c0.1,1.2,0.3,3.1,0.5,3.9"/>
	<path class="st97" d="M2.9,25.3c-0.2,1.4-1.1,2.1-1.7,3.1c-0.6,0.9-1,2-0.7,4.1c0,0,0,0.4,0,1.1c0.1,1.2,0.3,3.1,0.5,3.9"/>
	<path class="st98" d="M2.9,25.3c-0.2,1.3-1.1,2-1.7,3.1c-0.6,0.9-1,2-0.7,4c0,0,0,0.4,0,1.1c0.1,1.2,0.3,3.1,0.5,3.9"/>
	<path class="st99" d="M2.9,25.3c-0.2,1.3-1.1,2-1.7,3c-0.6,0.9-1,1.9-0.7,4c0,0,0,0.4,0,1.1c0.1,1.2,0.3,3.1,0.5,3.9"/>
	<path class="st100" d="M2.9,25.4c-0.2,1.3-1,2-1.7,3c-0.6,0.9-1,1.9-0.7,4c0,0,0,0.4,0,1c0.1,1.2,0.3,3.1,0.5,3.8"/>
	<path class="st101" d="M2.9,25.4c-0.2,1.3-1,2-1.7,3c-0.6,0.9-1,1.9-0.7,4c0,0,0,0.4,0,1c0,1.2,0.3,3,0.5,3.8"/>
	<path class="st102" d="M2.9,25.4c-0.2,1.3-1,2-1.7,3c-0.6,0.9-1,1.9-0.7,4c0,0,0,0.4,0,1c0,1.2,0.3,3,0.5,3.8"/>
	<path class="st103" d="M2.8,25.5c-0.2,1.3-1,2-1.6,3c-0.6,0.9-1,1.9-0.7,3.9c0,0,0,0.4,0,1c0,1.2,0.3,3,0.5,3.8"/>
	<path class="st104" d="M2.8,25.5c-0.2,1.3-1,2-1.6,3c-0.6,0.9-1,1.9-0.7,3.9c0,0,0,0.4,0,1c0,1.2,0.3,3,0.5,3.8"/>
	<path class="st105" d="M2.8,25.5c-0.2,1.2-1,2-1.6,3c-0.5,0.9-0.9,1.9-0.7,3.9c0,0,0,0.4,0,1c0,1.1,0.3,3,0.5,3.8"/>
	<path class="st106" d="M2.8,25.5c-0.2,1.2-1,2-1.6,3c-0.5,0.9-0.9,1.9-0.7,3.9c0,0,0,0.4,0,1c0,1.1,0.3,3,0.5,3.7"/>
	<path class="st107" d="M2.8,25.6c-0.2,1.2-1,2-1.6,3c-0.5,0.9-0.9,1.9-0.7,3.9c0,0,0,0.4,0,1c0,1.1,0.3,2.9,0.5,3.7"/>
	<path class="st108" d="M2.8,25.6c-0.2,1.2-1,2-1.6,2.9c-0.5,0.9-0.9,1.9-0.7,3.8c0,0,0,0.4,0,1c0,1.1,0.3,2.9,0.5,3.7"/>
	<path class="st109" d="M2.8,25.6c-0.2,1.2-1,2-1.5,2.9c-0.5,0.9-0.9,1.9-0.7,3.8c0,0,0,0.4,0,1c0,1.1,0.3,2.9,0.5,3.7"/>
	<path class="st110" d="M2.8,25.7c-0.2,1.2-0.9,1.9-1.5,2.9c-0.5,0.9-0.9,1.9-0.7,3.8c0,0,0,0.4,0,1c0,1.1,0.3,2.9,0.5,3.7"/>
	<path class="st111" d="M2.8,25.7c-0.2,1.2-0.9,1.9-1.5,2.9c-0.5,0.9-0.9,1.9-0.7,3.8c0,0,0,0.4,0,1c0,1.1,0.3,2.9,0.5,3.6"/>
	<path class="st112" d="M2.8,25.7c-0.2,1.1-0.9,1.9-1.5,2.9c-0.5,0.9-0.9,1.8-0.7,3.7c0,0,0,0.4,0,1c0,1.1,0.3,2.9,0.5,3.6"/>
	<path class="st113" d="M2.8,25.8c-0.2,1.1-0.9,1.9-1.5,2.9c-0.5,0.9-0.9,1.8-0.7,3.7c0,0,0,0.4,0,1c0,1.1,0.3,2.8,0.4,3.6"/>
	<path class="st114" d="M2.8,25.8c-0.2,1.1-0.9,1.9-1.5,2.9c-0.5,0.9-0.9,1.8-0.7,3.7c0,0,0,0.4,0,1c0,1.1,0.3,2.8,0.4,3.6"/>
	<path class="st115" d="M2.8,25.8c-0.2,1.1-0.9,1.9-1.4,2.9c-0.5,0.9-0.9,1.8-0.7,3.7c0,0,0,0.4,0,1c0,1.1,0.3,2.8,0.4,3.6"/>
	<path class="st116" d="M2.8,25.9c-0.2,1.1-0.9,1.9-1.4,2.8c-0.5,0.9-0.9,1.8-0.7,3.7c0,0,0,0.4,0,1c0,1.1,0.3,2.8,0.4,3.5"/>
	<path class="st117" d="M2.8,25.9c-0.2,1.1-0.9,1.9-1.4,2.8c-0.5,0.9-0.9,1.8-0.7,3.6c0,0,0,0.4,0,1c0,1.1,0.3,2.8,0.4,3.5"/>
	<path class="st118" d="M2.7,25.9c-0.1,1.1-0.9,1.9-1.4,2.8c-0.5,0.9-0.9,1.8-0.7,3.6c0,0,0,0.4,0,1c0,1.1,0.3,2.7,0.4,3.5"/>
	<path class="st119" d="M2.7,26c-0.1,1-0.8,1.9-1.4,2.8c-0.5,0.9-0.9,1.8-0.7,3.6c0,0.1,0,0.4,0,0.9c0,1.1,0.3,2.7,0.4,3.5"/>
	<path class="st120" d="M2.7,26c-0.1,1-0.8,1.9-1.4,2.8c-0.5,0.9-0.9,1.8-0.7,3.6c0,0.1,0,0.4,0,0.9c0,1,0.3,2.7,0.4,3.5"/>
	<path class="st121" d="M2.7,26c-0.1,1-0.8,1.8-1.4,2.8c-0.5,0.9-0.9,1.8-0.7,3.6c0,0.1,0,0.4,0,0.9c0,1,0.3,2.7,0.4,3.4"/>
	<path class="st122" d="M2.7,26c-0.1,1-0.8,1.8-1.3,2.8c-0.5,0.9-0.9,1.8-0.7,3.5c0,0.1,0,0.4,0,0.9c0,1,0.3,2.7,0.4,3.4"/>
	<path class="st123" d="M2.7,26.1c-0.1,1-0.8,1.8-1.3,2.8c-0.5,0.9-0.9,1.8-0.7,3.5c0,0.1,0,0.4,0,0.9c0,1,0.3,2.7,0.4,3.4"/>
	<path class="st124" d="M2.7,26.1c-0.1,1-0.8,1.8-1.3,2.8c-0.5,0.9-0.9,1.8-0.7,3.5c0,0.1,0,0.4,0,0.9c0,1,0.4,2.6,0.4,3.4"/>
	<path class="st125" d="M2.7,26.1c-0.1,1-0.8,1.8-1.3,2.7c-0.5,0.9-0.9,1.8-0.7,3.5c0,0.1,0,0.4,0,0.9c0,1,0.4,2.6,0.4,3.4"/>
	<path class="st126" d="M2.7,26.2c-0.1,0.9-0.8,1.8-1.3,2.7c-0.5,0.9-0.9,1.7-0.7,3.5c0,0.1,0,0.4,0,0.9c0,1,0.4,2.6,0.4,3.4"/>
	<path class="st127" d="M2.7,26.2c-0.1,0.9-0.8,1.8-1.3,2.7c-0.5,0.9-0.8,1.7-0.7,3.4c0,0.1,0,0.4,0,0.9c0,1,0.4,2.6,0.4,3.3"/>
	<path class="st128" d="M2.7,26.2c-0.1,0.9-0.8,1.8-1.2,2.7c-0.5,0.9-0.8,1.7-0.7,3.4c0,0.1,0,0.4,0,0.9c0,1,0.4,2.6,0.4,3.3"/>
	<path class="st129" d="M2.7,26.3C2.5,27.2,1.9,28,1.4,29c-0.5,0.9-0.8,1.7-0.7,3.4c0,0.1,0,0.4,0,0.9c0,1,0.4,2.6,0.4,3.3"/>
	<path class="st130" d="M2.7,26.3c-0.1,0.9-0.7,1.8-1.2,2.7c-0.5,0.9-0.8,1.7-0.8,3.4c0,0.1,0,0.4,0,0.9c0,1,0.4,2.5,0.4,3.3"/>
	<path class="st131" d="M2.7,26.3c-0.1,0.9-0.7,1.8-1.2,2.7c-0.5,0.9-0.8,1.7-0.8,3.4c0,0.1,0,0.4,0,0.9c0,1,0.4,2.5,0.4,3.3"/>
	<path class="st132" d="M2.7,26.4c-0.1,0.9-0.7,1.7-1.2,2.7c-0.5,0.9-0.8,1.7-0.8,3.3c0,0.1,0,0.4-0.1,0.9c0,1,0.4,2.5,0.4,3.2"/>
	<path class="st133" d="M2.6,26.4c-0.1,0.8-0.7,1.7-1.2,2.7c-0.5,0.9-0.8,1.7-0.8,3.3c0,0.1,0,0.4-0.1,0.9c0,1,0.4,2.5,0.4,3.2"/>
	<path class="st134" d="M2.6,26.4c-0.1,0.8-0.7,1.7-1.1,2.6C1,30,0.7,30.7,0.7,32.4c0,0.1,0,0.4-0.1,0.9c0,1,0.4,2.5,0.3,3.2"/>
	<path class="st135" d="M2.6,26.5c-0.1,0.8-0.7,1.7-1.1,2.6c-0.4,0.9-0.8,1.7-0.8,3.3c0,0.1,0,0.4-0.1,0.9c0,0.9,0.4,2.5,0.3,3.2"/>
	<path class="st136" d="M2.6,26.5c-0.1,0.8-0.7,1.7-1.1,2.6c-0.4,0.9-0.8,1.7-0.8,3.3c0,0.1,0,0.4-0.1,0.9c0,0.9,0.4,2.4,0.3,3.2"/>
	<path class="st137" d="M2.6,26.5c-0.1,0.8-0.7,1.7-1.1,2.6c-0.4,0.9-0.8,1.7-0.8,3.2c0,0.1,0,0.4-0.1,0.9c0,0.9,0.4,2.4,0.3,3.1"/>
	<path class="st138" d="M2.6,26.5c-0.1,0.8-0.7,1.7-1.1,2.6c-0.4,0.9-0.8,1.7-0.8,3.2c0,0.1,0,0.4-0.1,0.8c0,0.9,0.4,2.4,0.3,3.1"/>
	<path class="st139" d="M2.6,26.6c-0.1,0.8-0.6,1.7-1.1,2.6c-0.4,0.9-0.8,1.6-0.8,3.2c0,0.1-0.1,0.4-0.1,0.8c0,0.9,0.4,2.4,0.3,3.1"
		/>
	<path class="st140" d="M2.6,26.6c-0.1,0.7-0.6,1.7-1.1,2.6c-0.4,0.9-0.8,1.6-0.8,3.2c0,0.1-0.1,0.4-0.1,0.8c0,0.9,0.4,2.4,0.3,3.1"
		/>
	<path class="st141" d="M2.6,26.6c-0.1,0.7-0.6,1.7-1,2.6c-0.4,0.9-0.8,1.6-0.8,3.2c0,0.1-0.1,0.4-0.1,0.8c0,0.9,0.4,2.4,0.3,3.1"/>
	<path class="st142" d="M2.6,26.7c-0.1,0.7-0.6,1.7-1,2.6c-0.4,0.9-0.8,1.6-0.8,3.1c0,0.1-0.1,0.4-0.1,0.8c0,0.9,0.4,2.3,0.3,3.1"/>
	<path class="st143" d="M2.6,26.7c-0.1,0.7-0.6,1.7-1,2.5c-0.4,0.9-0.8,1.6-0.8,3.1c0,0.1-0.1,0.4-0.1,0.8c0,0.9,0.4,2.3,0.3,3"/>
	<path class="st144" d="M2.6,26.7c-0.1,0.7-0.6,1.6-1,2.5c-0.4,0.9-0.8,1.6-0.8,3.1c0,0.1-0.1,0.4-0.1,0.8c0,0.9,0.4,2.3,0.3,3"/>
	<path class="st145" d="M2.6,26.8c-0.1,0.7-0.6,1.6-1,2.5c-0.4,0.9-0.8,1.6-0.8,3.1c0,0.1-0.1,0.4-0.1,0.8c0,0.9,0.4,2.3,0.3,3"/>
	<path class="st146" d="M2.6,26.8c-0.1,0.7-0.6,1.6-1,2.5c-0.4,0.9-0.5,1.6-0.8,3c0,0.1-0.1,0.4-0.1,0.8c0,0.9,0.4,2.3,0.3,3"/>
	<path class="st147" d="M2.6,26.8c-0.1,0.6-0.6,1.6-0.9,2.5c-0.4,0.9-0.5,1.6-0.8,3c0,0.1-0.1,0.4-0.1,0.8c-0.1,0.9,0.4,2.3,0.3,3"
		/>
	<path class="st148" d="M2.5,26.9c-0.1,0.6-0.5,1.6-0.9,2.5c-0.4,0.9-0.5,1.6-0.8,3c0,0.1-0.1,0.4-0.1,0.8C0.7,34,1.2,35.4,1,36.1"
		/>
	<path class="st149" d="M2.5,26.9c-0.1,0.6-0.5,1.6-0.9,2.5c-0.4,0.9-0.5,1.6-0.8,3c0,0.1-0.1,0.4-0.1,0.8C0.7,34,1.2,35.4,1,36.1"
		/>
	<path class="st150" d="M2.5,26.9c-0.1,0.6-0.5,1.6-0.9,2.5c-0.4,0.9-0.5,1.6-0.8,3c0,0.1-0.1,0.4-0.1,0.8C0.7,34,1.2,35.3,1,36"/>
	<path class="st151" d="M2.5,26.9c-0.1,0.6-0.5,1.6-0.9,2.4c-0.4,0.9-0.5,1.6-0.8,2.9c0,0.1-0.1,0.4-0.1,0.8C0.7,34,1.2,35.3,1,36"
		/>
	<path class="st152" d="M2.5,27c-0.1,0.6-0.5,1.6-0.9,2.4c-0.4,0.9-0.5,1.6-0.8,2.9c0,0.1-0.1,0.4-0.1,0.8C0.7,33.9,1.2,35.3,1,36"
		/>
	<path class="st153" d="M2.5,27c-0.1,0.6-0.5,1.6-0.9,2.4c-0.4,0.9-0.5,1.6-0.8,2.9c0,0.1-0.1,0.4-0.1,0.8C0.7,33.9,1.2,35.3,1,36"
		/>
	<path class="st154" d="M2.5,27c-0.1,0.5-0.5,1.6-0.8,2.4c-0.4,0.9-0.5,1.6-0.8,2.9c0,0.1-0.1,0.4-0.1,0.8c-0.1,0.8,0.4,2.1,0.2,2.8
		"/>
	<path class="st155" d="M2.5,27.1c-0.1,0.5-0.5,1.5-0.8,2.4c-0.4,0.9-0.5,1.6-0.8,2.9c0,0.1-0.1,0.4-0.1,0.8
		c-0.1,0.8,0.4,2.1,0.2,2.8"/>
	<path class="st156" d="M2.5,27.1c-0.1,0.5-0.5,1.5-0.8,2.4c-0.4,0.9-0.5,1.5-0.8,2.8c0,0.1-0.1,0.4-0.1,0.8
		c-0.1,0.8,0.4,2.1,0.2,2.8"/>
	<path class="st157" d="M2.5,27.1c-0.1,0.5-0.4,1.5-0.8,2.4c-0.4,0.9-0.5,1.5-0.8,2.8c0,0.1-0.1,0.4-0.1,0.7
		c-0.1,0.8,0.4,2.1,0.2,2.8"/>
	<path class="st158" d="M2.5,27.2c-0.1,0.5-0.4,1.5-0.8,2.4c-0.4,0.9-0.5,1.5-0.8,2.8c0,0.1-0.1,0.4-0.1,0.7
		c-0.1,0.8,0.4,2.1,0.2,2.8"/>
	<path class="st159" d="M2.5,27.2c-0.1,0.5-0.4,1.5-0.8,2.4c-0.4,0.9-0.5,1.5-0.8,2.8c0,0.1-0.1,0.4-0.1,0.7
		c-0.1,0.8,0.4,2.1,0.2,2.7"/>
	<path class="st160" d="M2.5,27.2c-0.1,0.4-0.4,1.5-0.7,2.3c-0.4,0.9-0.5,1.5-0.8,2.8c0,0.1-0.1,0.4-0.1,0.7c-0.1,0.8,0.4,2,0.2,2.7
		"/>
	<path class="st161" d="M2.5,27.3c-0.1,0.4-0.4,1.5-0.7,2.3c-0.3,0.9-0.5,1.5-0.8,2.7c0,0.1-0.1,0.4-0.1,0.7c-0.1,0.8,0.5,2,0.2,2.7
		"/>
	<path class="st162" d="M2.5,27.3c-0.1,0.4-0.4,1.5-0.7,2.3c-0.3,0.9-0.5,1.5-0.8,2.7c0,0.1-0.1,0.4-0.1,0.7c-0.1,0.8,0.5,2,0.2,2.7
		"/>
	<path class="st163" d="M2.5,27.3c-0.1,0.4-0.4,1.5-0.7,2.3c-0.3,0.9-0.5,1.5-0.8,2.7c0,0.1-0.1,0.4-0.1,0.7c-0.1,0.8,0.5,2,0.2,2.7
		"/>
	<path class="st164" d="M2.4,27.4c-0.1,0.4-0.4,1.5-0.7,2.3c-0.3,0.9-0.5,1.5-0.8,2.7c0,0.1-0.1,0.4-0.1,0.7c-0.1,0.7,0.5,2,0.2,2.6
		"/>
	<path class="st165" d="M2.4,27.4c-0.1,0.4-0.4,1.5-0.7,2.3c-0.3,0.9-0.5,1.5-0.8,2.7c0,0.1-0.1,0.4-0.1,0.7C0.7,33.8,1.3,35,1,35.7
		"/>
	<path class="st166" d="M2.4,27.4c-0.1,0.4-0.4,1.5-0.6,2.3c-0.3,0.9-0.5,1.5-0.8,2.6c0,0.1-0.1,0.4-0.1,0.7C0.7,33.8,1.3,35,1,35.6
		"/>
	<path class="st167" d="M2.4,27.4c0,0.3-0.3,1.4-0.6,2.3c-0.3,0.9-0.5,1.5-0.8,2.6c0,0.1-0.1,0.4-0.1,0.7c-0.1,0.7,0.5,1.9,0.2,2.6"
		/>
	<path class="st168" d="M2.4,27.5c0,0.3-0.3,1.4-0.6,2.3c-0.3,0.9-0.5,1.5-0.8,2.6c0,0.1-0.1,0.4-0.1,0.7c-0.1,0.7,0.5,1.9,0.2,2.6"
		/>
	<path class="st169" d="M2.4,27.5c0,0.3-0.3,1.4-0.6,2.2c-0.3,0.9-0.5,1.4-0.8,2.6c0,0.1-0.1,0.4-0.1,0.7c-0.1,0.7,0.5,1.9,0.2,2.5"
		/>
	<path class="st170" d="M2.4,27.5c0,0.3-0.3,1.4-0.6,2.2c-0.3,0.9-0.5,1.4-0.8,2.6c0,0.1-0.1,0.4-0.1,0.7c-0.1,0.7,0.5,1.9,0.2,2.5"
		/>
	<path class="st171" d="M2.4,27.6c0,0.3-0.3,1.4-0.6,2.2c-0.3,0.9-0.5,1.4-0.8,2.5c0,0.1-0.1,0.4-0.1,0.7c-0.1,0.7,0.5,1.8,0.2,2.5"
		/>
	<path class="st172" d="M2.4,27.6c0,0.3-0.3,1.4-0.6,2.2c-0.3,0.9-0.5,1.4-0.8,2.5c0,0.1-0.1,0.4-0.1,0.7c-0.1,0.7,0.5,1.8,0.2,2.5"
		/>
	<path class="st173" d="M2.4,27.6c0,0.3-0.3,1.4-0.5,2.2c-0.3,0.9-0.5,1.4-0.9,2.5c0,0.1-0.1,0.4-0.1,0.7c-0.1,0.7,0.5,1.8,0.2,2.5"
		/>
	<path class="st174" d="M2.4,27.7c0,0.2-0.3,1.4-0.5,2.2c-0.3,0.9-0.5,1.4-0.9,2.5c0,0.1-0.1,0.4-0.2,0.7c-0.1,0.7,0.5,1.8,0.2,2.5"
		/>
	<path class="st175" d="M2.4,27.7c0,0.2-0.3,1.4-0.5,2.2c-0.3,0.9-0.5,1.4-0.9,2.5c0,0.1-0.1,0.4-0.2,0.7c-0.1,0.7,0.5,1.8,0.1,2.4"
		/>
	<path class="st176" d="M2.4,27.7c0,0.2-0.2,1.4-0.5,2.2c-0.3,0.9-0.5,1.4-0.9,2.4c0,0.1-0.1,0.4-0.2,0.6c-0.1,0.7,0.5,1.8,0.1,2.4"
		/>
	<path class="st177" d="M2.4,27.8c0,0.2-0.2,1.4-0.5,2.2c-0.3,0.9-0.5,1.4-0.9,2.4c0,0.1-0.1,0.4-0.2,0.6c-0.1,0.7,0.5,1.7,0.1,2.4"
		/>
	<path class="st178" d="M2.4,27.8c0,0.2-0.2,1.3-0.5,2.1c-0.3,0.9-0.5,1.4-0.9,2.4c0,0.1-0.1,0.4-0.2,0.6c-0.1,0.7,0.5,1.7,0.1,2.4"
		/>
	<path class="st179" d="M2.3,27.8c0,0.2-0.2,1.3-0.4,2.1c-0.3,0.9-0.5,1.4-0.9,2.4c0,0.2-0.1,0.4-0.2,0.6c-0.1,0.6,0.5,1.7,0.1,2.4"
		/>
	<path class="st180" d="M2.3,27.9c0,0.2-0.2,1.3-0.4,2.1c-0.3,0.9-0.5,1.4-0.9,2.4c0,0.2-0.1,0.4-0.2,0.6c-0.1,0.6,0.5,1.7,0.1,2.3"
		/>
	<path class="st181" d="M2.3,27.9c0,0.1-0.2,1.3-0.4,2.1c-0.3,0.9-0.6,1.3-0.9,2.3c0,0.2-0.1,0.4-0.2,0.6c-0.1,0.6,0.5,1.7,0.1,2.3"
		/>
	<path class="st182" d="M2.3,27.9c0,0.1-0.2,1.3-0.4,2.1c-0.3,0.9-0.6,1.3-0.9,2.3c-0.1,0.2-0.1,0.4-0.2,0.6
		c-0.1,0.6,0.5,1.7,0.1,2.3"/>
	<path class="st183" d="M2.3,27.9c0,0.1-0.2,1.3-0.4,2.1c-0.3,0.9-0.6,1.3-0.9,2.3C1,32.5,1,32.7,0.9,32.9c-0.1,0.6,0.5,1.6,0.1,2.3
		"/>
	<path class="st184" d="M2.3,28c0,0.1-0.2,1.3-0.4,2.1c-0.3,0.9-0.6,1.3-0.9,2.3C1,32.5,1,32.7,0.9,32.9c-0.1,0.6,0.5,1.6,0.1,2.3"
		/>
	<path class="st185" d="M2.3,28c0,0.1-0.1,1.3-0.3,2.1c-0.2,0.9-0.6,1.3-0.9,2.2C1,32.5,1,32.7,0.9,32.9c-0.1,0.6,0.5,1.6,0.1,2.2"
		/>
	<path class="st186" d="M2.3,28c0,0.1-0.1,1.3-0.3,2.1c-0.2,0.9-0.6,1.3-0.9,2.2C1,32.5,1,32.7,0.9,32.9c-0.1,0.6,0.5,1.6,0.1,2.2"
		/>
	<path class="st187" d="M2.3,28.1c0,0.1-0.1,1.3-0.3,2c-0.2,0.9-0.6,1.3-0.9,2.2C1,32.5,1,32.7,0.9,32.9c-0.2,0.6,0.5,1.6,0.1,2.2"
		/>
	<path class="st188" d="M2.3,28.1c0,0-0.1,1.3-0.3,2c-0.2,0.9-0.6,1.3-0.9,2.2C1,32.5,1,32.7,0.9,32.9c-0.2,0.6,0.5,1.6,0.1,2.2"/>
	<path class="st189" d="M2.3,28.1c0,0-0.1,1.3-0.3,2c-0.2,0.9-0.6,1.3-0.9,2.2C1,32.5,1,32.7,0.9,32.9c-0.2,0.6,0.5,1.5,0.1,2.2"/>
	<path class="st190" d="M2.3,28.2c0,0-0.1,1.2-0.3,2c-0.2,0.9-0.6,1.3-0.9,2.1c-0.1,0.2-0.1,0.4-0.2,0.6C0.8,33.5,1.5,34.4,1,35"/>
	<path class="st191" d="M2.3,28.2c0,0-0.1,1.2-0.3,2c-0.3,1.1-0.7,1.3-1.1,2.7C0.8,33.4,1.5,34.4,1,35"/>
</g>
<linearGradient id="L_short_2_" gradientUnits="userSpaceOnUse" x1="16.3313" y1="2.1885" x2="16.3313" y2="61.4666">
	<stop  offset="3.000000e-02" style="stop-color:#F1F0EB"/>
	<stop  offset="0.1662" style="stop-color:#3B474E"/>
	<stop  offset="0.5" style="stop-color:#0B1F2A"/>
	<stop  offset="0.5055" style="stop-color:#0C202B"/>
	<stop  offset="0.8338" style="stop-color:#485258"/>
	<stop  offset="0.97" style="stop-color:#1F2D36"/>
</linearGradient>
<path id="L_short_1_" class="st192" d="M31.8,2.2C17.1,2.2,4,13.4,2.2,28.3c-0.1,0.5-0.1,0.8-0.1,1.2c0,0.4-0.1,0.7-0.3,1.3
	c-0.2,0.9-0.5,1-0.9,2.1c-0.2,0.4-0.2,1.1-0.2,1.6c0.2,3.3,2.4,22.9,27,27C7.5,57.1,2.4,40.8,2.4,32C2.4,15.7,15.7,2.4,32,2.4l0-0.2
	L31.8,2.2z"/>
<linearGradient id="R_2_" gradientUnits="userSpaceOnUse" x1="45.9177" y1="2.4242" x2="45.9177" y2="61.5153">
	<stop  offset="3.000000e-02" style="stop-color:#6B7378"/>
	<stop  offset="0.1662" style="stop-color:#485258"/>
	<stop  offset="0.5" style="stop-color:#00111E"/>
	<stop  offset="0.8338" style="stop-color:#3B474E"/>
	<stop  offset="0.97" style="stop-color:#DEE0DD"/>
</linearGradient>
<path id="R_1_" class="st193" d="M30.3,2.5l1.7,0c16.3,0,29.5,13.2,29.5,29.5c0,16.3-13.2,29.5-29.5,29.5l-0.2,0l0-0.2
	c16.2,0,29.2-13.1,29.2-29.1c0-1.3-0.3-1.9-0.8-2.4c-0.4-0.4-0.8-1.1-0.9-1.9c-1.8-14.5-14.1-25.3-29-25.3L30.3,2.5z"/>
<g id="inline_gradient">
	<path id="inline_unten_2_" class="st194" d="M2,32.2c0-16.5,13.4-30,29.9-30l0,0c16.5,0,29.9,13.5,29.9,30l0,0h0
		c0,16.5-13.4,29.8-29.9,29.8l0,0C15.4,62.1,2,48.7,2,32.2L2,32.2z M11,11.4c-5.3,5.4-8.6,12.8-8.6,20.9l0,0
		c0,8.1,3.3,15.5,8.6,20.8l0,0c5.3,5.3,12.7,8.6,20.9,8.6l0,0c8.1,0,15.5-3.3,20.9-8.6l0,0c5.3-5.3,8.6-12.7,8.6-20.8l0,0
		c0-8.1-3.3-15.5-8.6-20.9l0,0C47.4,6,40,2.7,31.9,2.7l0,0C23.7,2.7,16.4,6,11,11.4L11,11.4z"/>
	<path id="inline_oben_2_" class="st194" d="M2,32c0-16.5,13.4-30,29.9-30l0,0c16.5,0,29.9,13.5,29.9,30l0,0h0
		c0,16.5-13.4,29.8-29.9,29.8l0,0C15.4,61.8,2,48.5,2,32L2,32z M11,11.1C5.7,16.5,2.4,23.9,2.4,32l0,0c0,8.1,3.3,15.5,8.6,20.8l0,0
		c5.3,5.3,12.7,8.6,20.9,8.6l0,0c8.1,0,15.5-3.3,20.9-8.6l0,0c5.3-5.3,8.6-12.7,8.6-20.8l0,0c0-8.1-3.3-15.5-8.6-20.9l0,0
		C47.4,5.8,40,2.5,31.9,2.5l0,0C23.7,2.5,16.4,5.8,11,11.1L11,11.1z"/>
	<path class="st195" d="M2.1,32C2.1,15.6,15.5,2.1,32,2.1l0,0c16.5,0,29.8,13.5,29.8,29.9l0,0c0,16.4-13.4,29.8-29.8,29.8l0,0
		C15.5,61.8,2.1,48.5,2.1,32L2.1,32z M11.3,11.3C6,16.6,2.7,24,2.7,32l0,0c0,8.1,3.3,15.4,8.6,20.6l0,0c5.3,5.3,12.6,8.6,20.7,8.6
		l0,0c8.1,0,15.4-3.3,20.7-8.6l0,0c5.3-5.3,8.6-12.6,8.6-20.6l0,0c0-8.1-3.3-15.4-8.6-20.7l0,0C47.4,6,40.1,2.7,32,2.7l0,0
		C23.9,2.7,16.6,6,11.3,11.3L11.3,11.3z"/>
</g>
<linearGradient id="SVGID_1_" gradientUnits="userSpaceOnUse" x1="51.5362" y1="51.5396" x2="12.3974" y2="12.4008">
	<stop  offset="3.000000e-02" style="stop-color:#1F2D36"/>
	<stop  offset="0.1448" style="stop-color:#2B3840"/>
	<stop  offset="0.3223" style="stop-color:#37434B"/>
	<stop  offset="0.5" style="stop-color:#3B474E"/>
	<stop  offset="0.6571" style="stop-color:#3E4950"/>
	<stop  offset="0.7516" style="stop-color:#465158"/>
	<stop  offset="0.8295" style="stop-color:#545F65"/>
	<stop  offset="0.8984" style="stop-color:#687277"/>
	<stop  offset="0.9607" style="stop-color:#828B8F"/>
	<stop  offset="0.97" style="stop-color:#878F93"/>
</linearGradient>
<path class="st196" d="M32,59.6c-7.4,0-14.3-2.9-19.6-8.1C7.2,46.3,4.3,39.4,4.3,32c0-7.4,2.9-14.3,8.1-19.6
	C17.6,7.2,24.6,4.3,32,4.3c7.4,0,14.3,2.9,19.6,8.1c5.2,5.2,8.1,12.2,8.1,19.6c0,7.4-2.9,14.3-8.1,19.6C46.3,56.8,39.4,59.6,32,59.6
	L32,59.6z M32,59.1c7.2,0,14.1-2.8,19.2-7.9c5.1-5.1,7.9-11.9,7.9-19.2c0-7.2-2.8-14.1-7.9-19.2C46,7.7,39.2,4.8,32,4.8
	c-7.2,0-14.1,2.8-19.2,7.9C7.7,17.9,4.8,24.7,4.8,32c0,7.2,2.8,14.1,7.9,19.2C17.9,56.3,24.7,59.1,32,59.1L32,59.1z"/>
<linearGradient id="SVGID_2_" gradientUnits="userSpaceOnUse" x1="9.3744" y1="9.3745" x2="54.5657" y2="54.5658">
	<stop  offset="3.000000e-02" style="stop-color:#27343C"/>
	<stop  offset="0.1195" style="stop-color:#2F3B43"/>
	<stop  offset="0.2418" style="stop-color:#333F47"/>
	<stop  offset="0.5" style="stop-color:#3B474E"/>
	<stop  offset="0.6746" style="stop-color:#3F4B52"/>
	<stop  offset="0.849" style="stop-color:#4B565D"/>
	<stop  offset="0.97" style="stop-color:#586369"/>
</linearGradient>
<path class="st197" d="M32,0.5C14.6,0.5,0.5,14.6,0.5,32c0,17.3,14.1,31.4,31.4,31.4c17.3,0,31.4-14.1,31.4-31.4
	C63.4,14.6,49.3,0.5,32,0.5L32,0.5z M32,63.9c-17.6,0-32-14.3-32-32C0,14.3,14.3,0,32,0c17.6,0,32,14.3,32,32
	C63.9,49.6,49.6,63.9,32,63.9L32,63.9z"/>
<g>
	<path class="st198" d="M32,3.4c0,0.1,0,28.9,0,28.9l4.7-2.7L33.2,4.9C33.2,4.9,33,3.9,32,3.4z"/>
	<path class="st199" d="M32,3.4c0,0.1,0,28.9,0,28.9c0,0,4.7-2.7,4.7-2.8c0,0-3.5-24.6-3.5-24.6C33.2,4.9,33,3.9,32,3.4z"/>
	<path class="st200" d="M32,3.4c0,0.1,0,28.9,0,28.9c0,0,4.6-2.7,4.6-3c0,0-3.4-24.5-3.4-24.5C33.2,4.8,33,3.8,32,3.4z"/>
	<path class="st201" d="M32,3.4c0,0.1,0,28.9,0,28.9c0.1-0.1,4.6-2.8,4.6-3.1c0,0-3.4-24.4-3.4-24.4C33.2,4.8,33,3.8,32,3.4z"/>
	<path class="st202" d="M32,3.4c0,0.1,0,28.9,0,28.9c0.1-0.1,4.6-2.8,4.6-3.2c0,0-3.4-24.2-3.4-24.2C33.1,4.8,33,3.8,32,3.4z"/>
	<path class="st203" d="M32,3.4c0,0.1,0,28.9,0,28.9c0.1-0.1,4.6-2.8,4.5-3.3c0,0-3.4-24.1-3.4-24.1C33.1,4.8,33,3.8,32,3.4z"/>
	<path class="st204" d="M32,3.4c0,0.1,0,28.9,0,28.9c0.1-0.1,4.5-2.8,4.5-3.4c0-0.1-3.3-24-3.3-24C33.1,4.8,32.9,3.8,32,3.4z"/>
	<path class="st205" d="M32,3.4c0,0.1,0,28.9,0,28.9c0.2-0.1,4.5-2.8,4.5-3.6c0-0.1-3.3-23.9-3.3-23.9C33.1,4.8,32.9,3.8,32,3.4z"/>
	<path class="st206" d="M32,3.4c0,0.1,0,28.9,0,28.9c0.2-0.1,4.5-2.9,4.4-3.7c0-0.1-3.3-23.7-3.3-23.8C33.1,4.8,32.9,3.8,32,3.4z"/>
	<path class="st207" d="M32,3.4c0,0.1,0,28.9,0,28.9c0.2-0.2,4.5-2.9,4.4-3.8c0-0.1-3.3-23.6-3.3-23.6C33.1,4.8,32.9,3.8,32,3.4z"/>
	<path class="st208" d="M32,3.4c0,0.1,0,28.9,0,28.9c0.2-0.2,4.4-2.9,4.4-3.9c0-0.1-3.2-23.5-3.2-23.5C33.1,4.8,32.9,3.8,32,3.4z"/>
	<path class="st209" d="M32,3.4c0,0.1,0,28.9,0,28.9c0.3-0.2,4.4-2.9,4.3-4.1c0-0.1-3.2-23.4-3.2-23.4C33.1,4.8,32.9,3.8,32,3.4z"/>
	<path class="st210" d="M32,3.4c0,0.1,0,28.8,0,28.8c0.3-0.2,4.4-2.9,4.3-4.2c0-0.1-3.2-23.2-3.2-23.3C33.1,4.7,32.9,3.8,32,3.4z"/>
	<path class="st211" d="M32,3.4c0,0.1,0,28.8,0,28.8c0.3-0.2,4.4-2.9,4.2-4.3c0-0.1-3.2-23.1-3.2-23.1C33.1,4.7,32.9,3.8,32,3.4z"/>
	<path class="st212" d="M32,3.4c0,0.1,0,28.8,0,28.8c0.3-0.2,4.3-3,4.2-4.4c0-0.1-3.1-23-3.1-23C33.1,4.7,32.9,3.8,32,3.4z"/>
	<path class="st213" d="M32,3.4c0,0.1,0,28.8,0,28.8c0.4-0.3,4.3-3,4.2-4.5c0-0.1-3.1-22.9-3.1-22.9C33.1,4.7,32.9,3.8,32,3.4z"/>
	<path class="st214" d="M32,3.4c0,0.1,0,28.8,0,28.8c0.4-0.3,4.3-3,4.1-4.7c0-0.1-3.1-22.7-3.1-22.8C33,4.7,32.8,3.8,32,3.4z"/>
	<path class="st215" d="M32,3.4c0,0.1,0,28.8,0,28.8c0.4-0.3,4.3-3,4.1-4.8c0-0.2-3.1-22.6-3.1-22.7C33,4.7,32.8,3.8,32,3.4z"/>
	<path class="st216" d="M32,3.4c0,0,0,28.8,0,28.8c0.4-0.3,4.2-3,4.1-4.9c0-0.2-3-22.5-3-22.5C33,4.7,32.8,3.8,32,3.4z"/>
	<path class="st217" d="M32,3.4c0,0,0,28.8,0,28.8c0.5-0.3,4.2-3,4-5c0-0.2-3-22.4-3-22.4C33,4.7,32.8,3.8,32,3.4z"/>
	<path class="st218" d="M32,3.4c0,0,0,28.8,0,28.8c0.5-0.3,4.2-3.1,4-5.2c0-0.2-3-22.2-3-22.3C33,4.7,32.8,3.8,32,3.4z"/>
	<path class="st219" d="M32,3.4c0,0,0,28.8,0,28.8c0.5-0.4,4.1-3.1,4-5.3c0-0.2-3-22.1-3-22.2C33,4.7,32.8,3.8,32,3.4z"/>
	<path class="st220" d="M32,3.4c0,0,0,28.8,0,28.8c0.5-0.4,4.1-3.1,3.9-5.4c0-0.2-2.9-22-2.9-22C33,4.7,32.8,3.8,32,3.4z"/>
	<path class="st221" d="M32,3.4c0,0,0,28.8,0,28.8c0.6-0.4,4.1-3.1,3.9-5.5c0-0.2-2.9-21.9-2.9-21.9C33,4.6,32.8,3.8,32,3.4z"/>
	<path class="st222" d="M32,3.4c0,0,0,28.8,0,28.8c0.6-0.4,4.1-3.1,3.9-5.6c0-0.2-2.9-21.7-2.9-21.8C33,4.6,32.8,3.7,32,3.4z"/>
	<path class="st223" d="M32,3.4c0,0,0,28.8,0,28.8c0.6-0.4,4-3.1,3.8-5.8c0-0.2-2.9-21.6-2.9-21.7C33,4.6,32.8,3.7,32,3.4z"/>
	<path class="st224" d="M32,3.4c0,0,0,28.7,0,28.7c0.6-0.4,4-3.2,3.8-5.9C35.8,26,33,4.7,33,4.7C33,4.6,32.8,3.7,32,3.4z"/>
	<path class="st225" d="M32,3.4c0,0,0,28.7,0,28.7c0.7-0.5,4-3.2,3.8-6c0-0.2-2.8-21.4-2.8-21.4C33,4.6,32.7,3.7,32,3.4z"/>
	<path class="st226" d="M32,3.4c0,0,0,28.7,0,28.7c0.7-0.5,4-3.2,3.7-6.1c0-0.2-2.8-21.3-2.8-21.3C33,4.6,32.7,3.7,32,3.4z"/>
	<path class="st227" d="M32,3.4c0,0,0,28.7,0,28.7c0.7-0.5,3.9-3.2,3.7-6.3c0-0.3-2.7-21.1-2.8-21.2C32.9,4.6,32.7,3.7,32,3.4z"/>
	<path class="st228" d="M32,3.4c0,0,0,28.7,0,28.7c0.7-0.5,3.9-3.2,3.7-6.4c0-0.3-2.7-21-2.7-21.1C32.9,4.6,32.7,3.7,32,3.4z"/>
	<path class="st229" d="M32,3.4c0,0,0,28.7,0,28.7c0.8-0.5,3.9-3.3,3.6-6.5c0-0.3-2.7-20.9-2.7-20.9C32.9,4.6,32.7,3.7,32,3.4z"/>
	<path class="st230" d="M32,3.4c0,0,0,28.7,0,28.7c0.8-0.6,3.9-3.3,3.6-6.6c0-0.3-2.7-20.8-2.7-20.8C32.9,4.6,32.7,3.7,32,3.4z"/>
	<path class="st231" d="M32,3.4c0,0,0,28.7,0,28.7c0.8-0.6,3.8-3.3,3.6-6.7c0-0.3-2.6-20.6-2.7-20.7C32.9,4.5,32.7,3.7,32,3.4z"/>
	<path class="st232" d="M32,3.4c0,0,0,28.7,0,28.7c0.8-0.6,3.8-3.3,3.5-6.9c0-0.3-2.6-20.5-2.6-20.6C32.9,4.5,32.7,3.7,32,3.4z"/>
	<path class="st233" d="M32,3.4c0,0,0,28.7,0,28.7c0.9-0.6,3.8-3.3,3.5-7c0-0.3-2.6-20.4-2.6-20.5C32.9,4.5,32.7,3.7,32,3.4z"/>
	<path class="st234" d="M32,3.4C32,3.4,32,32,32,32c0.9-0.6,3.8-3.3,3.5-7.1c0-0.3-2.6-20.3-2.6-20.3C32.9,4.5,32.7,3.7,32,3.4z"/>
	<path class="st235" d="M32,3.4C32,3.4,32,32,32,32c0.9-0.6,3.7-3.4,3.4-7.2c0-0.3-2.5-20.1-2.6-20.2C32.9,4.5,32.6,3.7,32,3.4z"/>
	<path class="st236" d="M32,3.4C32,3.4,32,32,32,32c0.9-0.7,3.7-3.4,3.4-7.4c0-0.3-2.5-20-2.5-20.1C32.9,4.5,32.6,3.7,32,3.4z"/>
	<path class="st237" d="M32,3.4C32,3.4,32,32,32,32c1-0.7,3.7-3.4,3.4-7.5c0-0.3-2.5-19.9-2.5-20C32.9,4.5,32.6,3.7,32,3.4z"/>
	<path class="st238" d="M32,3.4C32,3.4,32,32,32,32c1-0.7,3.7-3.4,3.3-7.6c0-0.4-2.5-19.8-2.5-19.9C32.9,4.5,32.6,3.7,32,3.4z"/>
	<path class="st239" d="M32,3.4C32,3.4,32,32,32,32c1-0.7,3.6-3.4,3.3-7.7c0-0.4-2.4-19.6-2.5-19.7C32.9,4.5,32.6,3.7,32,3.4z"/>
	<path class="st240" d="M32,3.4C32,3.4,32,32,32,32c1-0.7,3.6-3.4,3.3-7.8c0-0.4-2.4-19.5-2.4-19.6C32.8,4.5,32.6,3.7,32,3.4z"/>
	<path class="st241" d="M32,3.4C32,3.4,32,32,32,32c1.1-0.7,3.6-3.5,3.2-8c0-0.4-2.4-19.4-2.4-19.5C32.8,4.5,32.6,3.7,32,3.4z"/>
	<path class="st242" d="M32,3.4C32,3.4,32,32,32,32c1.1-0.8,3.5-3.5,3.2-8.1c0-0.4-2.4-19.3-2.4-19.4C32.8,4.4,32.6,3.7,32,3.4z"/>
	<path class="st243" d="M32,3.4C32,3.4,32,32,32,32c1.1-0.8,3.5-3.5,3.1-8.2c0-0.4-2.3-19.1-2.4-19.2C32.8,4.4,32.6,3.7,32,3.4z"/>
	<path class="st244" d="M32,3.4C32,3.4,32,32,32,32c1.1-0.8,3.5-3.5,3.1-8.3c0-0.4-2.3-19-2.3-19.1C32.8,4.4,32.6,3.6,32,3.4z"/>
	<path class="st245" d="M32,3.4C32,3.4,32,32,32,32c1.2-0.8,3.5-3.5,3.1-8.5c0-0.4-2.3-18.9-2.3-19C32.8,4.4,32.6,3.6,32,3.4z"/>
	<path class="st246" d="M32,3.4C32,3.4,32,32,32,32c1.2-0.8,3.4-3.6,3-8.6c0-0.4-2.3-18.8-2.3-18.9C32.8,4.4,32.5,3.6,32,3.4z"/>
	<path class="st247" d="M32,3.4C32,3.4,32,32,32,32c1.2-0.8,3.4-3.6,3-8.7c0-0.4-2.2-18.6-2.3-18.8C32.8,4.4,32.5,3.6,32,3.4z"/>
	<path class="st248" d="M32,3.4c0,0,0.1,28.6,0.1,28.6c1.2-0.9,3.4-3.6,3-8.8c0-0.4-2.2-18.5-2.2-18.6C32.8,4.4,32.5,3.6,32,3.4z"/>
	<path class="st249" d="M32,3.4c0,0,0.1,28.6,0.1,28.6c1.3-0.9,3.4-3.6,2.9-8.9c0-0.5-2.2-18.4-2.2-18.5C32.8,4.4,32.5,3.6,32,3.4z"
		/>
	<path class="st250" d="M32,3.4c0,0,0.1,28.6,0.1,28.6c1.3-0.9,3.3-3.6,2.9-9.1c0-0.5-2.2-18.3-2.2-18.4C32.8,4.4,32.5,3.6,32,3.4z"
		/>
	<path class="st251" d="M32,3.4c0,0,0.1,28.6,0.1,28.6c1.3-0.9,3.3-3.6,2.9-9.2c0-0.5-2.1-18.1-2.1-18.3C32.8,4.4,32.5,3.6,32,3.4z"
		/>
	<path class="st252" d="M32,3.4c0,0,0.1,28.5,0.1,28.5c1.3-0.9,3.3-3.7,2.8-9.3c0-0.5-2.1-18-2.1-18.1C32.7,4.3,32.5,3.6,32,3.4z"/>
	<path class="st253" d="M32,3.4c0,0,0.1,28.5,0.1,28.5c1.4-0.9,3.3-3.7,2.8-9.4c0-0.5-2.1-17.9-2.1-18C32.7,4.3,32.5,3.6,32,3.4z"/>
	<path class="st254" d="M32,3.4c0,0,0.1,28.5,0.1,28.5c1.4-1,3.2-3.7,2.8-9.6c0-0.5-2.1-17.8-2.1-17.9C32.7,4.3,32.5,3.6,32,3.4z"/>
	<path class="st255" d="M32,3.4c0,0,0.1,28.5,0.1,28.5c1.4-1,3.2-3.7,2.7-9.7c0-0.5-2-17.6-2-17.8C32.7,4.3,32.5,3.6,32,3.4z"/>
	<path class="st256" d="M32,3.4c0,0,0.1,28.5,0.1,28.5c1.4-1,3.2-3.7,2.7-9.8c0-0.5-2-17.5-2-17.7C32.7,4.3,32.4,3.6,32,3.4z"/>
	<path class="st257" d="M32,3.4c0,0,0.1,28.5,0.1,28.5c1.4-1,3.2-3.7,2.7-9.9c0-0.5-2-17.4-2-17.5C32.7,4.3,32.4,3.6,32,3.4z"/>
	<path class="st258" d="M32,3.4c0,0,0.1,28.5,0.1,28.5c1.5-1,3.1-3.8,2.6-10c0-0.5-2-17.3-2-17.4C32.7,4.3,32.4,3.6,32,3.4z"/>
	<path class="st259" d="M32,3.4c0,0,0.1,28.5,0.1,28.5c1.5-1.1,3.1-3.8,2.6-10.2c0-0.5-1.9-17.2-1.9-17.3C32.7,4.3,32.4,3.6,32,3.4z
		"/>
	<path class="st260" d="M32,3.4c0,0,0.1,28.5,0.1,28.5c1.5-1.1,3.1-3.8,2.6-10.3c0-0.6-1.9-17-1.9-17.2C32.7,4.3,32.4,3.6,32,3.4z"
		/>
	<path class="st261" d="M32,3.4c0,0,0.1,28.5,0.1,28.5c1.5-1.1,3-3.8,2.5-10.4c0-0.6-1.9-16.9-1.9-17C32.7,4.3,32.4,3.6,32,3.4z"/>
	<path class="st262" d="M32,3.4c0,0,0.1,28.5,0.1,28.5c1.6-1.1,3-3.8,2.5-10.5c0-0.6-1.9-16.8-1.9-16.9C32.7,4.3,32.4,3.6,32,3.4z"
		/>
	<path class="st263" d="M32,3.4c0,0,0.1,28.5,0.1,28.5c1.6-1.1,3-3.8,2.5-10.7c0-0.6-1.8-16.7-1.8-16.8C32.7,4.2,32.4,3.6,32,3.4z"
		/>
	<path class="st264" d="M32,3.4c0,0,0.1,28.5,0.1,28.5c1.6-1.1,3-3.9,2.4-10.8c0-0.6-1.8-16.5-1.8-16.7C32.7,4.2,32.4,3.6,32,3.4z"
		/>
	<path class="st265" d="M32,3.4c0,0,0.1,28.5,0.1,28.5c1.6-1.2,2.9-3.9,2.4-10.9c0-0.6-1.8-16.4-1.8-16.6C32.6,4.2,32.4,3.6,32,3.4z
		"/>
	<path class="st266" d="M32,3.4c0,0,0.1,28.5,0.1,28.5c1.7-1.2,2.9-3.9,2.4-11c0-0.6-1.7-16.3-1.8-16.4C32.6,4.2,32.4,3.5,32,3.4z"
		/>
	<path class="st267" d="M32,3.4c0,0,0.1,28.4,0.1,28.4c1.7-1.2,2.9-3.9,2.3-11.1c0-0.6-1.7-16.2-1.7-16.3C32.6,4.2,32.3,3.5,32,3.4z
		"/>
	<path class="st268" d="M32,3.4c0,0,0.1,28.4,0.1,28.4c1.7-1.2,2.9-3.9,2.3-11.3c0-0.6-1.7-16-1.7-16.2C32.6,4.2,32.3,3.5,32,3.4z"
		/>
	<path class="st269" d="M32,3.4c0,0,0.1,28.4,0.1,28.4c1.7-1.2,2.8-4,2.3-11.4c0-0.6-1.7-15.9-1.7-16.1C32.6,4.2,32.3,3.5,32,3.4z"
		/>
	<path class="st270" d="M32,3.4c0,0,0.1,28.4,0.1,28.4c1.8-1.2,2.8-4,2.2-11.5c-0.1-0.6-1.6-15.8-1.7-15.9C32.6,4.2,32.3,3.5,32,3.4
		z"/>
	<path class="st271" d="M32,3.4c0,0,0.1,28.4,0.1,28.4c1.8-1.3,2.8-4,2.2-11.6c-0.1-0.7-1.6-15.7-1.6-15.8C32.6,4.2,32.3,3.5,32,3.4
		z"/>
	<path class="st272" d="M32,3.4c0,0,0.1,28.4,0.1,28.4c1.8-1.3,2.8-4,2.2-11.7c-0.1-0.7-1.6-15.5-1.6-15.7C32.6,4.2,32.3,3.5,32,3.4
		z"/>
	<path class="st273" d="M32,3.4c0,0,0.1,28.4,0.1,28.4c1.8-1.3,2.7-4,2.1-11.9c-0.1-0.7-1.6-15.4-1.6-15.6C32.6,4.1,32.3,3.5,32,3.4
		z"/>
	<path class="st274" d="M32,3.4c0,0,0.1,28.4,0.1,28.4c1.9-1.3,2.7-4,2.1-12c-0.1-0.7-1.5-15.3-1.6-15.5C32.6,4.1,32.3,3.5,32,3.4z"
		/>
	<path class="st275" d="M32,3.4c0,0,0.1,28.4,0.1,28.4c1.9-1.3,2.7-4.1,2.1-12.1C34.1,19,32.6,4.5,32.6,4.3
		C32.6,4.1,32.3,3.5,32,3.4z"/>
	<path class="st276" d="M32,3.4c0,0,0.1,28.4,0.1,28.4c1.9-1.3,2.7-4.1,2-12.2c-0.1-0.7-1.5-15-1.5-15.2C32.6,4.1,32.3,3.5,32,3.4z"
		/>
	<path class="st277" d="M32,3.4c0,0,0.1,28.4,0.1,28.4c1.9-1.4,2.6-4.1,2-12.4C34,18.7,32.6,4.5,32.6,4.3C32.5,4.1,32.2,3.5,32,3.4z
		"/>
	<path class="st278" d="M32,3.4c0,0,0.1,28.4,0.1,28.4c2-1.4,2.6-4.1,1.9-12.5c-0.1-0.7-1.4-14.8-1.5-15C32.5,4.1,32.2,3.5,32,3.4z"
		/>
	<path class="st279" d="M32,3.4c0,0,0.1,28.4,0.1,28.4c2-1.4,2.6-4.1,1.9-12.6c-0.1-0.7-1.4-14.7-1.4-14.9C32.5,4.1,32.2,3.5,32,3.4
		z"/>
	<path class="st280" d="M32,3.4c0,0,0.1,28.4,0.1,28.4c2-1.4,2.6-4.1,1.9-12.7c-0.1-0.7-1.4-14.5-1.4-14.7C32.5,4.1,32.2,3.5,32,3.4
		z"/>
	<path class="st281" d="M32,3.4c0,0,0.1,28.3,0.1,28.3c2-1.4,2.5-4.2,1.8-12.8c-0.1-0.7-1.4-14.4-1.4-14.6C32.5,4.1,32.2,3.5,32,3.4
		z"/>
	<path class="st282" d="M32,3.4c0,0,0.1,28.3,0.1,28.3c2.1-1.4,2.5-4.2,1.8-13C33.8,18,32.6,4.4,32.5,4.2C32.5,4.1,32.2,3.5,32,3.4z
		"/>
	<path class="st283" d="M32,3.4c0,0,0.1,28.3,0.1,28.3c2.1-1.5,2.5-4.2,1.8-13.1c-0.1-0.8-1.3-14.2-1.3-14.4
		C32.5,4.1,32.2,3.5,32,3.4z"/>
	<path class="st284" d="M32,3.4c0,0,0.1,28.3,0.1,28.3c2.1-1.5,2.4-4.2,1.7-13.2c-0.1-0.8-1.3-14-1.3-14.2C32.5,4,32.2,3.5,32,3.4z"
		/>
	<path class="st285" d="M32,3.4c0,0,0.1,28.3,0.1,28.3c2.1-1.5,2.4-4.2,1.7-13.3c-0.1-0.8-1.3-13.9-1.3-14.1C32.5,4,32.2,3.5,32,3.4
		z"/>
	<path class="st286" d="M32,3.4c0,0,0.1,28.3,0.1,28.3c2.2-1.5,2.4-4.3,1.7-13.5c-0.1-0.8-1.2-13.8-1.3-14C32.5,4,32.2,3.5,32,3.4z"
		/>
	<path class="st287" d="M32,3.4c0,0,0.1,28.3,0.1,28.3c2.2-1.5,2.4-4.3,1.6-13.6c-0.1-0.8-1.2-13.7-1.2-13.9C32.5,4,32.2,3.5,32,3.4
		z"/>
	<path class="st288" d="M32,3.4c0,0,0.1,28.3,0.1,28.3c2.2-1.6,2.3-4.3,1.6-13.7c-0.1-0.8-1.2-13.6-1.2-13.8C32.5,4,32.1,3.4,32,3.4
		z"/>
	<path class="st289" d="M32,3.4c0,0,0.1,28.3,0.1,28.3c2.2-1.6,2.3-4.3,1.6-13.8C33.6,17,32.5,4.4,32.5,4.2C32.5,4,32.1,3.4,32,3.4z
		"/>
	<path class="st290" d="M32,3.4c0,0,0.1,28.3,0.1,28.3c2.3-1.6,2.3-4.3,1.5-13.9c-0.1-0.8-1.1-13.3-1.2-13.5C32.4,4,32.1,3.4,32,3.4
		z"/>
	<path class="st291" d="M32,3.4c0,0,0.1,28.3,0.1,28.3c2.3-1.6,2.3-4.3,1.5-14.1c-0.1-0.8-1.1-13.2-1.1-13.4C32.4,4,32.1,3.4,32,3.4
		z"/>
	<path class="st292" d="M32,3.4c0,0,0.1,28.3,0.1,28.3c2.3-1.6,2.2-4.4,1.5-14.2c-0.1-0.8-1.1-13.1-1.1-13.3C32.4,4,32.1,3.4,32,3.4
		z"/>
	<path class="st293" d="M32,3.4c0,0,0.1,28.3,0.1,28.3c2.3-1.6,2.2-4.4,1.4-14.3c-0.1-0.8-1.1-12.9-1.1-13.1C32.4,4,32.1,3.4,32,3.4
		z"/>
	<path class="st294" d="M32,3.4c0,0,0.1,28.3,0.1,28.3c2.4-1.7,2.2-4.4,1.4-14.4c-0.1-0.9-1-12.8-1.1-13C32.4,3.9,32.1,3.4,32,3.4z"
		/>
	<path class="st295" d="M32,3.4c0,0,0.1,28.2,0.1,28.2c2.4-1.7,2.2-4.4,1.4-14.6c-0.1-0.9-1-12.7-1-12.9C32.4,3.9,32.1,3.4,32,3.4z"
		/>
	<path class="st296" d="M32,3.4c0,0,0.1,28.2,0.1,28.2c2.4-1.7,2.1-4.4,1.3-14.7c-0.1-0.9-1-12.6-1-12.8C32.4,3.9,32.1,3.4,32,3.4z"
		/>
	<path class="st297" d="M32,3.4c0,0,0.1,28.2,0.1,28.2c2.4-1.7,2.1-4.4,1.3-14.8c-0.1-0.9-1-12.4-1-12.7C32.4,3.9,32.1,3.4,32,3.4z"
		/>
	<path class="st298" d="M32,3.4c0,0,0.1,28.2,0.1,28.2c2.5-1.7,2.1-4.5,1.3-14.9c-0.1-0.9-0.9-12.3-1-12.5C32.4,3.9,32,3.4,32,3.4z"
		/>
	<path class="st299" d="M32,3.4c0,0,0.1,28.2,0.1,28.2c2.5-1.7,2.1-4.5,1.2-15c-0.1-0.9-0.9-12.2-0.9-12.4C32.4,3.9,32,3.4,32,3.4z"
		/>
	<path class="st300" d="M32,3.4c0,0,0.1,28.2,0.1,28.2c2.5-1.8,2-4.5,1.2-15.2c-0.1-0.9-0.9-12.1-0.9-12.3C32.4,3.9,32,3.4,32,3.4z"
		/>
	<path class="st301" d="M32,3.4c0,0,0.1,28.2,0.1,28.2c2.5-1.8,2-4.5,1.2-15.3c-0.1-0.9-0.9-11.9-0.9-12.2C32.4,3.9,32,3.4,32,3.4z"
		/>
	<path class="st302" d="M32,3.4c0,0,0.1,28.2,0.1,28.2c2.6-1.8,2-4.5,1.1-15.4c-0.1-0.9-0.8-11.8-0.9-12C32.4,3.9,32,3.4,32,3.4z"/>
	<path class="st303" d="M32,3.4c0,0,0.1,28.2,0.1,28.2c2.6-1.8,2-4.5,1.1-15.5c-0.1-0.9-0.8-11.7-0.8-11.9C32.3,3.9,32,3.4,32,3.4z"
		/>
	<path class="st304" d="M32,3.4c0,0,0.2,28.2,0.2,28.2c2.6-1.8,1.9-4.6,1.1-15.7c-0.1-0.9-0.8-11.6-0.8-11.8C32.3,3.9,32,3.4,32,3.4
		z"/>
	<path class="st305" d="M32,3.4c0,0,0.2,28.2,0.2,28.2c2.6-1.8,1.9-4.6,1-15.8c-0.1-1-0.8-11.4-0.8-11.7C32.3,3.8,32,3.4,32,3.4z"/>
	<path class="st306" d="M32.4,4.1c0-0.2-0.4-0.7-0.4-0.7l0.2,28.2c2.7-1.9,1.9-4.6,1-15.9C33,14.7,32.4,4.3,32.4,4.1z"/>
</g>
<g>
	<polygon class="st307" points="32,32 32,37.4 43.7,42.1 55.3,46.8 56.7,46.3 44.3,39.1 38.2,35.6 	"/>
	<path class="st308" d="M32,32v0.2c0,0,0.1,5.2,0.1,5.3c0.1,0,11.6,4.7,11.6,4.7l11.4,4.6c0,0,0.3,0.1,0.3,0.1c0,0,1.4-0.5,1.4-0.5
		c0,0-3.8-2.2-3.9-2.2c0,0-8.4-4.9-8.5-4.9c0,0-6.2-3.6-6.2-3.6C38.1,35.5,32,32,32,32z"/>
	<path class="st309" d="M32,32v0.2c0,0.1,0.1,5.2,0.3,5.3c0.1,0.1,11.5,4.7,11.5,4.7l11.3,4.6c0,0,0.3,0.1,0.3,0.1
		c0,0,1.4-0.5,1.4-0.5c0,0-3.8-2.2-3.9-2.2c-0.1,0-8.4-4.8-8.5-4.9c-0.1,0-6.1-3.5-6.2-3.6C38,35.5,32,32,32,32z"/>
	<path class="st310" d="M32,32v0.2c0,0.1,0.2,5.2,0.4,5.3c0.2,0.1,11.4,4.7,11.4,4.7l11.3,4.5c0,0,0.3,0.1,0.3,0.1
		c0,0,1.4-0.5,1.4-0.5c0,0-3.8-2.2-3.9-2.2s-8.3-4.8-8.5-4.9c-0.1-0.1-6.1-3.5-6.2-3.6C38,35.5,32,32,32,32z"/>
	<path class="st311" d="M32,32v0.2c0,0.1,0.3,5.2,0.5,5.3c0.2,0.2,11.3,4.6,11.3,4.6l11.3,4.5c0,0,0.3,0.1,0.3,0.1
		c0,0,1.3-0.5,1.4-0.5c0,0-3.7-2.2-3.9-2.2c-0.2-0.1-8.3-4.8-8.5-4.9c-0.1-0.1-6.1-3.5-6.2-3.6C37.9,35.4,32,32,32,32z"/>
	<path class="st312" d="M32,32v0.2c0,0.1,0.3,5.2,0.6,5.3c0.3,0.2,11.2,4.6,11.2,4.6l11.2,4.5c0,0,0.3,0.1,0.3,0.1
		c0,0,1.3-0.5,1.4-0.5c0,0-3.7-2.1-3.9-2.2c-0.2-0.1-8.2-4.7-8.5-4.9c-0.2-0.1-6-3.5-6.2-3.6C37.9,35.4,32,32,32,32z"/>
	<path class="st313" d="M32,32v0.2c0,0.2,0.4,5.1,0.8,5.4c0.3,0.2,11.2,4.6,11.2,4.6l11.2,4.5c0,0,0.3,0.1,0.3,0.1
		c0,0,1.3-0.5,1.4-0.5c0,0-3.6-2.1-3.9-2.2c-0.2-0.1-8.2-4.7-8.5-4.9c-0.2-0.1-6-3.5-6.2-3.6C37.8,35.3,32,32,32,32z"/>
	<path class="st314" d="M32,32v0.2c0.1,0.2,0.5,5.1,0.9,5.4c0.4,0.3,11.1,4.6,11.1,4.6l11.2,4.5c0,0,0.3,0.1,0.3,0.1
		c0,0,1.3-0.5,1.4-0.5c0,0-3.6-2.1-3.9-2.2c-0.3-0.2-8.1-4.7-8.5-4.9c-0.3-0.2-6-3.4-6.2-3.6C37.7,35.3,32,32,32,32z"/>
	<path class="st315" d="M32,32v0.2c0.1,0.2,0.5,5.1,1,5.4s11,4.6,11,4.6l11.1,4.5c0,0,0.2,0.1,0.3,0.1c0,0,1.3-0.5,1.4-0.5
		c0,0-3.6-2.1-3.9-2.2c-0.3-0.2-8.1-4.7-8.5-4.9c-0.3-0.2-5.9-3.4-6.2-3.6C37.7,35.3,32,32,32,32z"/>
	<path class="st316" d="M32,32v0.2c0.1,0.3,0.6,5.1,1.1,5.4C33.6,38,44,42.2,44,42.2l11.1,4.5c0,0,0.2,0.1,0.3,0.1
		c0,0,1.3-0.4,1.4-0.5c0,0-3.5-2-3.9-2.2c-0.4-0.2-8-4.6-8.5-4.9c-0.3-0.2-5.9-3.4-6.2-3.6C37.6,35.2,32,32,32,32z"/>
	<path class="st317" d="M32,32v0.2c0.1,0.3,0.7,5.1,1.3,5.5C33.8,38,44,42.2,44,42.2l11.1,4.4c0,0,0.2,0.1,0.3,0.1
		c0,0,1.3-0.4,1.4-0.5c0,0-3.5-2-3.9-2.2s-8-4.6-8.5-4.9c-0.4-0.2-5.9-3.4-6.2-3.6C37.5,35.2,32,32,32,32z"/>
	<path class="st318" d="M32,32v0.2c0.1,0.3,0.7,5.1,1.4,5.5c0.6,0.4,10.7,4.6,10.7,4.6l11,4.4c0,0,0.2,0.1,0.3,0.1
		c0,0,1.3-0.4,1.3-0.5c0,0-3.4-2-3.9-2.2c-0.4-0.3-7.9-4.6-8.5-4.9c-0.4-0.2-5.8-3.4-6.2-3.6C37.5,35.2,32,32,32,32z"/>
	<path class="st319" d="M32,32v0.2c0.1,0.3,0.8,5,1.5,5.5c0.7,0.5,10.6,4.6,10.6,4.6l11,4.4c0,0,0.2,0.1,0.3,0.1
		c0.1,0,1.2-0.4,1.3-0.5c0,0-3.4-2-3.9-2.2c-0.5-0.3-7.9-4.5-8.5-4.9c-0.4-0.3-5.8-3.3-6.2-3.6C37.4,35.1,32,32,32,32z"/>
	<path class="st320" d="M32,32v0.2c0.1,0.4,0.9,5,1.6,5.5s10.6,4.6,10.6,4.6l11,4.4c0,0,0.2,0.1,0.3,0.1c0.1,0,1.2-0.4,1.3-0.5
		c0,0-3.4-1.9-3.9-2.2s-7.8-4.5-8.5-4.9c-0.5-0.3-5.8-3.3-6.2-3.6C37.4,35.1,32,32,32,32z"/>
	<path class="st321" d="M32,32v0.2c0.1,0.4,0.9,5,1.8,5.6c0.8,0.5,10.5,4.5,10.5,4.5l10.9,4.4c0,0,0.2,0.1,0.3,0.1
		c0.1,0,1.2-0.4,1.3-0.5c0,0-3.3-1.9-3.9-2.2s-7.7-4.5-8.5-4.9c-0.5-0.3-5.7-3.3-6.2-3.6C37.3,35.1,32,32,32,32z"/>
	<path class="st322" d="M32,32v0.2c0.1,0.4,1,5,1.9,5.6c0.9,0.6,10.4,4.5,10.4,4.5l10.9,4.4c0,0,0.2,0.1,0.3,0.1
		c0.1,0,1.2-0.4,1.3-0.5c0,0-3.3-1.9-3.9-2.2c-0.6-0.3-7.7-4.4-8.5-4.9c-0.6-0.3-5.7-3.3-6.2-3.6C37.2,35,32,32,32,32z"/>
	<path class="st323" d="M32,32v0.2c0.1,0.5,1.1,5,2,5.6c0.9,0.6,10.3,4.5,10.3,4.5l10.9,4.4c0,0,0.2,0.1,0.3,0.1
		c0.1,0,1.2-0.4,1.3-0.5c0,0-3.2-1.9-3.9-2.2c-0.6-0.4-7.6-4.4-8.5-4.9c-0.6-0.3-5.7-3.3-6.2-3.6C37.2,35,32,32,32,32z"/>
	<path class="st324" d="M32,32v0.2c0.1,0.5,1.1,5,2.1,5.6c1,0.7,10.2,4.5,10.2,4.5l10.8,4.4c0,0,0.2,0.1,0.3,0.1
		c0.1,0,1.2-0.4,1.3-0.5c0,0-3.2-1.9-3.9-2.2c-0.7-0.4-7.6-4.4-8.5-4.9c-0.6-0.4-5.6-3.3-6.2-3.6C37.1,35,32,32,32,32z"/>
	<path class="st325" d="M32,32v0.2c0.1,0.5,1.2,4.9,2.3,5.6c1,0.7,10.1,4.5,10.1,4.5l10.8,4.3c0,0,0.2,0.1,0.3,0.1
		c0.1,0,1.2-0.4,1.3-0.5c0,0-3.2-1.8-3.9-2.2c-0.7-0.4-7.5-4.4-8.5-4.9c-0.7-0.4-5.6-3.2-6.2-3.6C37.1,34.9,32,32,32,32z"/>
	<path class="st268" d="M32,32v0.2c0.1,0.5,1.3,4.9,2.4,5.7c1.1,0.7,10,4.5,10,4.5l10.8,4.3c0,0,0.2,0.1,0.3,0.1
		c0.1,0,1.2-0.4,1.3-0.5c0,0-3.1-1.8-3.9-2.2c-0.8-0.4-7.5-4.3-8.5-4.9c-0.7-0.4-5.6-3.2-6.2-3.6C37,34.9,32,32,32,32z"/>
	<path class="st267" d="M32,32v0.2c0.1,0.6,1.3,4.9,2.5,5.7c1.2,0.8,9.9,4.5,9.9,4.5l10.7,4.3c0,0,0.2,0.1,0.2,0.1
		c0.1,0,1.2-0.4,1.3-0.5c0,0-3.1-1.8-3.9-2.2c-0.8-0.5-7.4-4.3-8.5-4.9c-0.7-0.4-5.5-3.2-6.2-3.6C36.9,34.9,32,32,32,32z"/>
	<path class="st266" d="M32,32v0.2c0.2,0.6,1.4,4.9,2.6,5.7c1.2,0.8,9.9,4.5,9.9,4.5l10.7,4.3c0,0,0.2,0.1,0.2,0.1
		c0.1,0,1.1-0.4,1.3-0.5c0,0-3-1.8-3.9-2.2c-0.8-0.5-7.4-4.3-8.5-4.9c-0.8-0.5-5.5-3.2-6.2-3.6C36.9,34.8,32,32,32,32z"/>
	<path class="st326" d="M32,32v0.2c0.2,0.6,1.5,4.9,2.8,5.7s9.8,4.5,9.8,4.5l10.7,4.3c0,0,0.2,0.1,0.2,0.1c0.1,0,1.1-0.4,1.3-0.5
		c0,0-3-1.7-3.9-2.2c-0.9-0.5-7.3-4.2-8.5-4.9c-0.8-0.5-5.5-3.2-6.2-3.6C36.8,34.8,32,32,32,32z"/>
	<path class="st327" d="M32,32v0.3c0.2,0.7,1.5,4.9,2.9,5.8c1.3,0.9,9.7,4.4,9.7,4.4l10.6,4.3c0,0,0.2,0.1,0.2,0.1
		c0.1,0,1.1-0.4,1.3-0.5c0,0-3-1.7-3.9-2.2c-0.9-0.5-7.3-4.2-8.5-4.9c-0.9-0.5-5.4-3.1-6.2-3.6C36.7,34.7,32,32,32,32z"/>
	<path class="st328" d="M32,32v0.3c0.2,0.7,1.6,4.9,3,5.8c1.4,0.9,9.6,4.4,9.6,4.4l10.6,4.3c0,0,0.2,0.1,0.2,0.1
		c0.1,0,1.1-0.4,1.3-0.5c0,0-2.9-1.7-3.9-2.2c-1-0.6-7.2-4.2-8.5-4.9c-0.9-0.5-5.4-3.1-6.2-3.6C36.7,34.7,32,32,32,32z"/>
	<path class="st329" d="M32,32v0.3c0.2,0.7,1.7,4.8,3.1,5.8s9.5,4.4,9.5,4.4l10.6,4.2c0,0,0.2,0.1,0.2,0.1c0.1,0,1.1-0.4,1.3-0.5
		c0,0-2.9-1.7-3.9-2.2c-1-0.6-7.2-4.1-8.5-4.9c-0.9-0.5-5.4-3.1-6.2-3.6C36.6,34.7,32,32,32,32z"/>
	<path class="st330" d="M32,32v0.3c0.2,0.7,1.7,4.8,3.3,5.8c1.5,1,9.4,4.4,9.4,4.4l10.5,4.2c0,0,0.2,0.1,0.2,0
		c0.1,0,1.1-0.3,1.3-0.5c0,0-2.8-1.6-3.9-2.2c-1-0.6-7.1-4.1-8.5-4.9c-1-0.6-5.3-3.1-6.2-3.6C36.6,34.6,32,32,32,32z"/>
	<path class="st331" d="M32,32v0.3c0.2,0.8,1.8,4.8,3.4,5.8c1.6,1,9.3,4.4,9.3,4.4l10.5,4.2c0,0,0.2,0.1,0.2,0
		c0.1,0,1.1-0.3,1.3-0.5c0,0-2.8-1.6-3.9-2.2s-7.1-4.1-8.5-4.9c-1-0.6-5.3-3.1-6.2-3.6C36.5,34.6,32,32,32,32z"/>
	<path class="st332" d="M32,32v0.3c0.2,0.8,1.9,4.8,3.5,5.9c1.6,1.1,9.2,4.4,9.2,4.4l10.5,4.2c0,0,0.2,0.1,0.2,0
		c0.1,0,1.1-0.3,1.3-0.5c0,0-2.8-1.6-3.9-2.2c-1.1-0.6-7-4-8.5-4.9c-1-0.6-5.3-3-6.2-3.6C36.4,34.6,32,32,32,32z"/>
	<path class="st333" d="M32,32v0.3c0.2,0.8,2,4.8,3.6,5.9c1.7,1.1,9.2,4.4,9.2,4.4l10.4,4.2c0,0,0.2,0.1,0.2,0c0.1,0,1-0.3,1.3-0.5
		c0,0-2.7-1.6-3.9-2.2s-7-4-8.5-4.9c-1.1-0.6-5.2-3-6.2-3.6C36.4,34.5,32,32,32,32z"/>
	<path class="st334" d="M32,32v0.3c0.2,0.9,2,4.8,3.8,5.9s9.1,4.4,9.1,4.4l10.4,4.2c0,0,0.2,0.1,0.2,0c0.1,0,1-0.3,1.3-0.5
		c0,0-2.7-1.6-3.9-2.2s-6.9-4-8.5-4.9c-1.1-0.6-5.2-3-6.2-3.6C36.3,34.5,32,32,32,32z"/>
	<path class="st335" d="M32,32v0.3c0.2,0.9,2.1,4.7,3.9,5.9s9,4.4,9,4.4l10.4,4.2c0,0,0.2,0,0.2,0c0.1,0,1-0.3,1.3-0.5
		c0,0-2.6-1.5-3.9-2.2c-1.2-0.7-6.8-4-8.5-4.9c-1.2-0.7-5.2-3-6.2-3.6C36.3,34.5,32,32,32,32z"/>
	<path class="st336" d="M32,32v0.3c0.2,0.9,2.2,4.7,4,6c1.9,1.2,8.9,4.3,8.9,4.3l10.3,4.1c0,0,0.2,0,0.2,0c0.1,0,1-0.3,1.3-0.5
		c0,0-2.6-1.5-3.9-2.2c-1.3-0.7-6.8-3.9-8.5-4.9c-1.2-0.7-5.2-3-6.2-3.6C36.2,34.4,32,32,32,32z"/>
	<path class="st337" d="M32,32v0.3c0.2,0.9,2.2,4.7,4.1,6s8.8,4.3,8.8,4.3l10.3,4.1c0,0,0.2,0,0.2,0c0.1,0,1-0.3,1.3-0.5
		c0,0-2.6-1.5-3.9-2.2c-1.3-0.8-6.7-3.9-8.5-4.9c-1.2-0.7-5.1-3-6.2-3.6C36.1,34.4,32,32,32,32z"/>
	<path class="st338" d="M32,32v0.3c0.2,1,2.3,4.7,4.3,6s8.7,4.3,8.7,4.3l10.3,4.1c0,0,0.2,0,0.2,0c0.1,0,1-0.3,1.3-0.5
		c0,0-2.5-1.5-3.9-2.2c-1.4-0.8-6.7-3.9-8.5-4.9c-1.3-0.7-5.1-2.9-6.2-3.6C36.1,34.4,32,32,32,32z"/>
	<path class="st339" d="M32,32v0.3c0.3,1,2.4,4.7,4.4,6c2,1.3,8.6,4.3,8.6,4.3l10.2,4.1c0,0,0.2,0,0.2,0c0.2,0,1-0.3,1.3-0.5
		c0,0-2.5-1.4-3.9-2.2c-1.4-0.8-6.6-3.8-8.5-4.9c-1.3-0.8-5.1-2.9-6.2-3.6C36,34.3,32,32,32,32z"/>
	<path class="st340" d="M32,32v0.3c0.3,1,2.4,4.7,4.5,6c2.1,1.4,8.5,4.3,8.5,4.3l10.2,4.1c0,0,0.2,0,0.2,0c0.2,0,1-0.3,1.3-0.5
		c0,0-2.4-1.4-3.9-2.2s-6.6-3.8-8.5-4.9c-1.3-0.8-5-2.9-6.2-3.6C35.9,34.3,32,32,32,32z"/>
	<path class="st341" d="M32,32v0.3c0.3,1.1,2.5,4.6,4.6,6.1c2.1,1.4,8.5,4.3,8.5,4.3l10.2,4.1c0,0,0.1,0,0.2,0c0.2,0,1-0.3,1.3-0.5
		c0,0-2.4-1.4-3.9-2.2c-1.5-0.9-6.5-3.8-8.5-4.9c-1.4-0.8-5-2.9-6.2-3.6C35.9,34.2,32,32,32,32z"/>
	<path class="st342" d="M32,32v0.3c0.3,1.1,2.6,4.6,4.8,6.1c2.2,1.5,8.4,4.3,8.4,4.3l10.1,4.1c0,0,0.1,0,0.2,0
		c0.2,0,0.9-0.3,1.3-0.5c0,0-2.4-1.4-3.9-2.2c-1.5-0.9-6.5-3.7-8.5-4.9c-1.4-0.8-5-2.9-6.2-3.6C35.8,34.2,32,32,32,32z"/>
	<path class="st343" d="M32,32v0.3c0.3,1.1,2.6,4.6,4.9,6.1s8.3,4.3,8.3,4.3l10.1,4.1c0,0,0.1,0,0.2,0c0.2,0,0.9-0.3,1.3-0.5
		c0,0-2.3-1.3-3.9-2.2s-6.4-3.7-8.5-4.9c-1.4-0.8-4.9-2.8-6.2-3.6C35.8,34.2,32,32,32,32z"/>
	<path class="st344" d="M32,32v0.3c0.3,1.1,2.7,4.6,5,6.1s8.2,4.3,8.2,4.3l10.1,4c0,0,0.1,0,0.2,0c0.2,0,0.9-0.3,1.2-0.5
		c0,0-2.3-1.3-3.9-2.2s-6.4-3.7-8.5-4.9c-1.5-0.9-4.9-2.8-6.2-3.6C35.7,34.1,32,32,32,32z"/>
	<path class="st345" d="M32,32v0.3c0.3,1.2,2.8,4.6,5.1,6.2c2.4,1.6,8.1,4.2,8.1,4.2l10,4c0,0,0.1,0,0.2,0c0.2,0,0.9-0.3,1.2-0.5
		c0,0-2.2-1.3-3.9-2.2c-1.6-0.9-6.3-3.6-8.5-4.9c-1.5-0.9-4.9-2.8-6.2-3.6C35.6,34.1,32,32,32,32z"/>
	<path class="st346" d="M32,32v0.3c0.3,1.2,2.8,4.6,5.3,6.2s8,4.2,8,4.2l10,4c0,0,0.1,0,0.2,0c0.2,0,0.9-0.3,1.2-0.5
		c0,0-2.2-1.3-3.9-2.2c-1.7-1-6.3-3.6-8.5-4.9c-1.6-0.9-4.8-2.8-6.2-3.6C35.6,34.1,32,32,32,32z"/>
	<path class="st347" d="M32,32v0.3c0.3,1.2,2.9,4.5,5.4,6.2s7.9,4.2,7.9,4.2l10,4c0,0,0.1,0,0.2,0c0.2,0,0.9-0.2,1.2-0.5
		c0,0-2.2-1.3-3.9-2.2c-1.7-1-6.2-3.6-8.5-4.9c-1.6-0.9-4.8-2.8-6.2-3.6C35.5,34,32,32,32,32z"/>
	<path class="st348" d="M32,32v0.3c0.3,1.3,3,4.5,5.5,6.2c2.6,1.7,7.8,4.2,7.8,4.2l9.9,4c0,0,0.1,0,0.2,0c0.2,0,0.9-0.2,1.2-0.5
		c0,0-2.1-1.2-3.9-2.2c-1.8-1-6.2-3.6-8.5-4.9c-1.6-0.9-4.8-2.7-6.2-3.6C35.5,34,32,32,32,32z"/>
	<path class="st349" d="M32,32v0.3c0.3,1.3,3,4.5,5.6,6.3c2.6,1.7,7.8,4.2,7.8,4.2l9.9,4c0,0,0.1,0,0.2,0c0.2,0,0.9-0.2,1.2-0.5
		c0,0-2.1-1.2-3.9-2.2c-1.8-1-6.1-3.5-8.5-4.9c-1.7-1-4.7-2.7-6.2-3.6C35.4,34,32,32,32,32z"/>
	<path class="st350" d="M32,32v0.3c0.3,1.3,3.1,4.5,5.8,6.3c2.7,1.8,7.7,4.2,7.7,4.2l9.9,4c0,0,0.1,0,0.2,0c0.2,0,0.8-0.2,1.2-0.5
		c0,0-2-1.2-3.9-2.2s-6.1-3.5-8.5-4.9c-1.7-1-4.7-2.7-6.2-3.6C35.3,33.9,32,32,32,32z"/>
	<path class="st351" d="M32,32v0.3c0.3,1.3,3.2,4.5,5.9,6.3c2.7,1.8,7.6,4.2,7.6,4.2l9.8,3.9c0,0,0.1,0,0.2,0c0.2,0,0.8-0.2,1.2-0.5
		c0,0-2-1.2-3.9-2.2s-6-3.5-8.5-4.9c-1.7-1-4.7-2.7-6.2-3.6C35.3,33.9,32,32,32,32z"/>
	<path class="st352" d="M32,32v0.3c0.4,1.4,3.2,4.5,6,6.3c2.8,1.9,7.5,4.2,7.5,4.2l9.8,3.9c0,0,0.1,0,0.2,0c0.2,0,0.8-0.2,1.2-0.5
		c0,0-2-1.1-3.9-2.2c-1.9-1.1-5.9-3.4-8.5-4.9c-1.8-1-4.6-2.7-6.2-3.6C35.2,33.9,32,32,32,32z"/>
	<path class="st353" d="M32,32v0.4c0.4,1.4,3.3,4.5,6.1,6.3c2.8,1.9,7.4,4.2,7.4,4.2l9.8,3.9c0,0,0.1,0,0.2,0c0.2,0,0.8-0.2,1.2-0.5
		c0,0-1.9-1.1-3.9-2.2s-5.9-3.4-8.5-4.9c-1.8-1.1-4.6-2.7-6.2-3.6C35.1,33.8,32,32,32,32z"/>
	<path class="st354" d="M32,32v0.4c0.4,1.4,3.4,4.4,6.3,6.4s7.3,4.1,7.3,4.1l9.7,3.9c0,0,0.1,0,0.2,0c0.2,0,0.8-0.2,1.2-0.5
		c0,0-1.9-1.1-3.9-2.2s-5.8-3.4-8.5-4.9c-1.9-1.1-4.6-2.6-6.2-3.6C35.1,33.8,32,32,32,32z"/>
	<path class="st355" d="M32,32v0.4c0.4,1.5,3.4,4.4,6.4,6.4s7.2,4.1,7.2,4.1l9.7,3.9c0,0,0.1,0,0.2,0c0.2,0,0.8-0.2,1.2-0.5
		c0,0-1.8-1.1-3.9-2.2c-2-1.2-5.8-3.3-8.5-4.9c-1.9-1.1-4.5-2.6-6.2-3.6C35,33.8,32,32,32,32z"/>
	<path class="st356" d="M32,32v0.4c0.4,1.5,3.5,4.4,6.5,6.4s7.2,4.1,7.2,4.1l9.7,3.9c0,0,0.1,0,0.2,0c0.2,0,0.8-0.2,1.2-0.5
		c0,0-1.8-1-3.9-2.2c-2.1-1.2-5.7-3.3-8.5-4.9c-1.9-1.1-4.5-2.6-6.2-3.6C35,33.7,32,32,32,32z"/>
	<path class="st357" d="M32,32v0.4c0.4,1.5,3.6,4.4,6.6,6.4c3.1,2,7.1,4.1,7.1,4.1l9.6,3.9c0,0,0.1,0,0.2,0c0.2,0,0.8-0.2,1.2-0.5
		c0,0-1.8-1-3.9-2.2c-2.1-1.2-5.7-3.3-8.5-4.9c-2-1.1-4.5-2.6-6.2-3.6C34.9,33.7,32,32,32,32z"/>
	<path class="st358" d="M32,32v0.4c0.4,1.5,3.6,4.4,6.8,6.5c3.1,2.1,7,4.1,7,4.1l9.6,3.9c0,0,0.1,0,0.2,0c0.2,0,0.8-0.2,1.2-0.5
		c0,0-1.7-1-3.9-2.2c-2.2-1.2-5.6-3.2-8.5-4.9c-2-1.2-4.4-2.6-6.2-3.6C34.8,33.6,32,32,32,32z"/>
	<path class="st359" d="M32,32v0.4c0.4,1.6,3.7,4.4,6.9,6.5c3.2,2.1,6.9,4.1,6.9,4.1l9.6,3.8c0,0,0.1,0,0.2,0c0.2,0,0.7-0.2,1.2-0.5
		c0,0-1.7-1-3.9-2.2c-2.2-1.3-5.6-3.2-8.5-4.9c-2-1.2-4.4-2.5-6.2-3.6C34.8,33.6,32,32,32,32z"/>
	<path class="st360" d="M32,32v0.4c0.4,1.6,3.8,4.3,7,6.5s6.8,4.1,6.8,4.1l9.5,3.8c0,0,0.1,0,0.2,0c0.2,0,0.7-0.2,1.2-0.5
		c0,0-1.6-1-3.9-2.2c-2.2-1.3-5.5-3.2-8.5-4.9c-2.1-1.2-4.4-2.5-6.2-3.6C34.7,33.6,32,32,32,32z"/>
	<path class="st361" d="M32,32v0.4c0.4,1.6,3.8,4.3,7.1,6.5c3.3,2.2,6.7,4.1,6.7,4.1l9.5,3.8c0,0,0.1,0,0.2,0c0.2,0,0.7-0.2,1.2-0.5
		c0,0-1.6-0.9-3.9-2.2c-2.3-1.3-5.5-3.2-8.5-4.9c-2.1-1.2-4.3-2.5-6.2-3.6C34.7,33.5,32,32,32,32z"/>
	<path class="st362" d="M32,32v0.4c0.4,1.7,3.9,4.3,7.3,6.5c3.4,2.2,6.6,4.1,6.6,4.1l9.5,3.8c0,0,0.7,0,1.4-0.5c0,0-1.6-0.9-3.9-2.2
		c-2.3-1.3-5.4-3.1-8.5-4.9C38.1,35.6,32,32,32,32z"/>
</g>
<g>
	<path class="st198" d="M9.1,46.6c0,0-1.2,0.4-1.9-0.3C7.3,46.2,32,32,32,32l0,5.4L9.1,46.6z"/>
	<path class="st199" d="M7.2,46.3C7.3,46.2,32,32,32,32c0,0,0,5.4-0.2,5.5c0,0-22.7,9.1-22.7,9.1S7.9,46.9,7.2,46.3z"/>
	<path class="st200" d="M7.2,46.3C7.3,46.2,32,32,32,32c0,0.1,0,5.3-0.4,5.5C31.5,37.6,9,46.6,9,46.6S7.9,46.9,7.2,46.3z"/>
	<path class="st201" d="M7.2,46.3C7.3,46.2,32,32,32,32c0,0.1,0,5.3-0.6,5.6c-0.1,0.1-22.4,9-22.4,9S7.9,46.9,7.2,46.3z"/>
	<path class="st202" d="M7.2,46.3C7.3,46.2,31.9,32,31.9,32c0,0.2,0,5.2-0.8,5.6C31,37.7,9,46.6,9,46.6S7.9,46.9,7.2,46.3z"/>
	<path class="st363" d="M7.2,46.3C7.3,46.2,31.9,32,31.9,32c0,0.2,0,5.2-1,5.7c-0.2,0.1-22,8.9-22,8.9S7.9,46.9,7.2,46.3z"/>
	<path class="st204" d="M7.2,46.3C7.3,46.2,31.9,32,31.9,32c0,0.2-0.1,5.2-1.2,5.7c-0.3,0.2-21.8,8.8-21.8,8.8S7.9,46.9,7.2,46.3z"
		/>
	<path class="st205" d="M7.2,46.3C7.3,46.2,31.9,32,31.9,32c0,0.3-0.1,5.1-1.4,5.8C30.2,38,8.9,46.6,8.9,46.6S7.9,46.9,7.2,46.3z"/>
	<path class="st364" d="M7.2,46.3C7.3,46.2,31.9,32,31.9,32c0,0.3-0.1,5.1-1.5,5.8C30,38,8.9,46.6,8.9,46.6S7.8,46.9,7.2,46.3z"/>
	<path class="st207" d="M7.2,46.3C7.3,46.2,31.9,32,31.9,32c0,0.3-0.1,5-1.7,5.9c-0.4,0.2-21.3,8.7-21.3,8.7S7.8,46.9,7.2,46.3z"/>
	<path class="st208" d="M7.2,46.3C7.3,46.2,31.9,32,31.9,32c0,0.4-0.1,5-1.9,5.9c-0.5,0.3-21.1,8.6-21.1,8.6S7.8,46.9,7.2,46.3z"/>
	<path class="st209" d="M7.2,46.3C7.3,46.2,31.9,32,31.9,32c0,0.4-0.1,4.9-2.1,6c-0.5,0.3-21,8.5-21,8.5S7.8,46.8,7.2,46.3z"/>
	<path class="st210" d="M7.2,46.3C7.3,46.2,31.9,32,31.9,32c0,0.5-0.1,4.9-2.3,6C29,38.4,8.8,46.5,8.8,46.5S7.8,46.8,7.2,46.3z"/>
	<path class="st365" d="M7.2,46.3C7.3,46.2,31.9,32,31.9,32c0,0.5-0.1,4.8-2.5,6.1c-0.6,0.3-20.6,8.4-20.6,8.4S7.8,46.8,7.2,46.3z"
		/>
	<path class="st366" d="M7.2,46.3C7.3,46.2,31.9,32,31.9,32c0,0.5-0.1,4.8-2.7,6.1c-0.7,0.4-20.4,8.4-20.4,8.4S7.8,46.8,7.2,46.3z"
		/>
	<path class="st367" d="M7.2,46.3C7.3,46.2,31.9,32,31.9,32c0,0.6-0.1,4.8-2.9,6.2c-0.7,0.4-20.3,8.3-20.3,8.3S7.8,46.8,7.2,46.3z"
		/>
	<path class="st368" d="M7.2,46.3C7.3,46.2,31.9,32,31.9,32c0,0.6-0.2,4.7-3.1,6.2C28,38.7,8.7,46.5,8.7,46.5S7.8,46.8,7.2,46.3z"/>
	<path class="st215" d="M7.2,46.3C7.3,46.2,31.9,32,31.9,32c0,0.6-0.2,4.7-3.3,6.3c-0.8,0.4-19.9,8.2-19.9,8.2S7.8,46.8,7.2,46.3z"
		/>
	<path class="st369" d="M7.2,46.3C7.3,46.2,31.9,32,31.9,32c0,0.7-0.2,4.6-3.5,6.3c-0.9,0.5-19.7,8.1-19.7,8.1S7.7,46.8,7.2,46.3z"
		/>
	<path class="st370" d="M7.2,46.3C7.3,46.2,31.8,32,31.8,32c0,0.7-0.2,4.6-3.7,6.4c-0.9,0.5-19.5,8.1-19.5,8.1S7.7,46.8,7.2,46.3z"
		/>
	<path class="st371" d="M7.2,46.3c0.1,0,24.6-14.2,24.6-14.2c0,0.8-0.2,4.5-3.9,6.5c-1,0.5-19.4,8-19.4,8S7.7,46.8,7.2,46.3z"/>
	<path class="st219" d="M7.2,46.3c0.1,0,24.6-14.2,24.6-14.2c0,0.8-0.2,4.5-4.1,6.5c-1,0.5-19.2,8-19.2,8S7.7,46.7,7.2,46.3z"/>
	<path class="st372" d="M7.2,46.3c0.1,0,24.6-14.2,24.6-14.2c0,0.8-0.2,4.5-4.3,6.6c-1.1,0.6-19,7.9-19,7.9S7.7,46.7,7.2,46.3z"/>
	<path class="st373" d="M7.2,46.3c0.1,0,24.6-14.2,24.6-14.2c0,0.9-0.2,4.4-4.5,6.6c-1.1,0.6-18.8,7.8-18.8,7.8S7.7,46.7,7.2,46.3z"
		/>
	<path class="st374" d="M7.2,46.3c0.1,0,24.6-14.2,24.6-14.2c0,0.9-0.2,4.4-4.6,6.7C26,39.3,8.5,46.5,8.5,46.5S7.7,46.7,7.2,46.3z"
		/>
	<path class="st375" d="M7.2,46.3c0.1,0,24.6-14.2,24.6-14.2c0,0.9-0.2,4.3-4.8,6.7c-1.2,0.6-18.5,7.7-18.5,7.7S7.7,46.7,7.2,46.3z"
		/>
	<path class="st376" d="M7.2,46.3c0.1,0,24.6-14.2,24.6-14.2c0,1-0.2,4.3-5,6.8c-1.3,0.7-18.3,7.7-18.3,7.7S7.7,46.7,7.2,46.3z"/>
	<path class="st377" d="M7.2,46.3c0.1,0,24.6-14.2,24.6-14.2c0,1-0.3,4.2-5.2,6.8c-1.3,0.7-18.1,7.6-18.1,7.6S7.7,46.7,7.2,46.3z"/>
	<path class="st378" d="M7.2,46.3c0,0,24.6-14.2,24.6-14.2c0,1.1-0.3,4.2-5.4,6.9c-1.4,0.7-18,7.6-18,7.6S7.6,46.7,7.2,46.3z"/>
	<path class="st379" d="M7.2,46.3c0,0,24.6-14.2,24.6-14.2c0,1.1-0.3,4.1-5.6,6.9c-1.4,0.7-17.8,7.5-17.8,7.5S7.6,46.7,7.2,46.3z"/>
	<path class="st380" d="M7.2,46.3c0,0,24.6-14.2,24.6-14.2c0,1.1-0.3,4.1-5.8,7c-1.5,0.8-17.6,7.4-17.6,7.4S7.6,46.7,7.2,46.3z"/>
	<path class="st381" d="M7.2,46.3c0,0,24.6-14.2,24.6-14.2c0,1.2-0.3,4.1-6,7c-1.5,0.8-17.4,7.4-17.4,7.4S7.6,46.7,7.2,46.3z"/>
	<path class="st382" d="M7.2,46.3c0,0,24.6-14.2,24.6-14.2c0,1.2-0.3,4-6.2,7.1C24,40,8.3,46.5,8.3,46.5S7.6,46.6,7.2,46.3z"/>
	<path class="st383" d="M7.2,46.3c0,0,24.5-14.2,24.5-14.2c0,1.2-0.3,4-6.4,7.1c-1.6,0.8-17.1,7.3-17.1,7.3S7.6,46.6,7.2,46.3z"/>
	<path class="st231" d="M7.2,46.3c0,0,24.5-14.2,24.5-14.2c0,1.3-0.3,3.9-6.6,7.2c-1.6,0.9-16.9,7.2-16.9,7.2S7.6,46.6,7.2,46.3z"/>
	<path class="st232" d="M7.2,46.3c0,0,24.5-14.2,24.5-14.2c0,1.3-0.3,3.9-6.8,7.2c-1.7,0.9-16.7,7.1-16.7,7.1S7.6,46.6,7.2,46.3z"/>
	<path class="st233" d="M7.2,46.3c0,0,24.5-14.2,24.5-14.2c0,1.4-0.3,3.8-7,7.3C23,40.3,8.2,46.5,8.2,46.5S7.6,46.6,7.2,46.3z"/>
	<path class="st384" d="M7.2,46.3c0,0,24.5-14.2,24.5-14.2c0,1.4-0.4,3.8-7.2,7.3c-1.8,0.9-16.4,7-16.4,7S7.6,46.6,7.2,46.3z"/>
	<path class="st385" d="M7.2,46.3c0,0,24.5-14.2,24.5-14.2c0,1.4-0.4,3.7-7.4,7.4c-1.8,1-16.2,7-16.2,7S7.5,46.6,7.2,46.3z"/>
	<path class="st386" d="M7.2,46.3c0,0,24.5-14.2,24.5-14.2c0,1.5-0.4,3.7-7.6,7.4c-1.9,1-16,6.9-16,6.9S7.5,46.6,7.2,46.3z"/>
	<path class="st237" d="M7.2,46.3c0,0,24.5-14.2,24.5-14.2c0.1,1.5-0.4,3.7-7.7,7.5c-1.9,1-15.9,6.9-15.9,6.9S7.5,46.6,7.2,46.3z"/>
	<path class="st238" d="M7.2,46.3c0,0,24.5-14.1,24.5-14.1c0.1,1.5-0.4,3.6-7.9,7.5c-2,1-15.7,6.8-15.7,6.8S7.5,46.6,7.2,46.3z"/>
	<path class="st352" d="M7.2,46.3c0,0,24.5-14.1,24.5-14.1c0.1,1.6-0.4,3.6-8.1,7.6c-2,1.1-15.5,6.7-15.5,6.7S7.5,46.5,7.2,46.3z"/>
	<path class="st351" d="M7.2,46.3c0,0,24.5-14.1,24.5-14.1c0.1,1.6-0.4,3.5-8.3,7.6C21.3,40.9,8,46.5,8,46.5S7.5,46.5,7.2,46.3z"/>
	<path class="st350" d="M7.2,46.3c0,0,24.5-14.1,24.5-14.1c0.1,1.7-0.4,3.5-8.5,7.7C21,40.9,8,46.5,8,46.5S7.5,46.5,7.2,46.3z"/>
	<path class="st387" d="M7.2,46.3c0,0,24.5-14.1,24.5-14.1c0.1,1.7-0.4,3.4-8.7,7.7C20.8,41,8,46.5,8,46.5S7.5,46.5,7.2,46.3z"/>
	<path class="st243" d="M7.2,46.3c0,0,24.5-14.1,24.5-14.1c0.1,1.7-0.4,3.4-8.9,7.8C20.5,41.1,8,46.5,8,46.5S7.5,46.5,7.2,46.3z"/>
	<path class="st388" d="M7.2,46.3c0,0,24.4-14.1,24.4-14.1c0.1,1.8-0.4,3.3-9.1,7.8c-2.3,1.2-14.6,6.4-14.6,6.4S7.5,46.5,7.2,46.3z"
		/>
	<path class="st389" d="M7.2,46.3c0,0,24.4-14.1,24.4-14.1c0.1,1.8-0.5,3.3-9.3,7.9C20,41.3,7.9,46.5,7.9,46.5S7.4,46.5,7.2,46.3z"
		/>
	<path class="st390" d="M7.2,46.3c0,0,24.4-14.1,24.4-14.1c0.1,1.8-0.5,3.3-9.5,7.9c-2.4,1.2-14.3,6.3-14.3,6.3S7.4,46.5,7.2,46.3z"
		/>
	<path class="st391" d="M7.2,46.3c0,0,24.4-14.1,24.4-14.1c0.1,1.9-0.5,3.2-9.7,8c-2.4,1.3-14.1,6.3-14.1,6.3S7.4,46.5,7.2,46.3z"/>
	<path class="st392" d="M7.2,46.3c0,0,24.4-14.1,24.4-14.1c0.1,1.9-0.5,3.2-9.9,8c-2.5,1.3-13.9,6.2-13.9,6.2S7.4,46.5,7.2,46.3z"/>
	<path class="st393" d="M7.2,46.3c0,0,24.4-14.1,24.4-14.1c0.1,2-0.5,3.1-10.1,8.1c-2.5,1.3-13.8,6.2-13.8,6.2S7.4,46.5,7.2,46.3z"
		/>
	<path class="st394" d="M7.2,46.3c0,0,24.4-14.1,24.4-14.1c0.1,2-0.5,3.1-10.3,8.1c-2.6,1.3-13.6,6.1-13.6,6.1S7.4,46.4,7.2,46.3z"
		/>
	<path class="st340" d="M7.2,46.3c0,0,24.4-14.1,24.4-14.1c0.1,2-0.5,3-10.5,8.2c-2.6,1.4-13.4,6-13.4,6S7.4,46.4,7.2,46.3z"/>
	<path class="st339" d="M7.2,46.3c0,0,24.4-14.1,24.4-14.1c0.1,2.1-0.5,3-10.7,8.3c-2.7,1.4-13.2,6-13.2,6S7.4,46.4,7.2,46.3z"/>
	<path class="st395" d="M7.2,46.3c0,0,24.4-14.1,24.4-14.1c0.1,2.1-0.5,3-10.8,8.3c-2.7,1.4-13.1,5.9-13.1,5.9S7.4,46.4,7.2,46.3z"
		/>
	<path class="st396" d="M7.2,46.3c0,0,24.4-14.1,24.4-14.1c0.1,2.1-0.5,2.9-11,8.4C17.8,42,7.7,46.4,7.7,46.4S7.4,46.4,7.2,46.3z"/>
	<path class="st397" d="M7.2,46.3c0,0,24.4-14.1,24.4-14.1c0.1,2.2-0.6,2.9-11.2,8.4c-2.8,1.5-12.7,5.8-12.7,5.8S7.3,46.4,7.2,46.3z
		"/>
	<path class="st398" d="M7.2,46.3c0,0,24.4-14.1,24.4-14.1c0.1,2.2-0.6,2.8-11.4,8.5c-2.9,1.5-12.5,5.7-12.5,5.7S7.3,46.4,7.2,46.3z
		"/>
	<path class="st399" d="M7.2,46.3c0,0,24.4-14.1,24.4-14.1C31.7,34.5,31,35,20,40.7c-2.9,1.5-12.4,5.7-12.4,5.7S7.3,46.4,7.2,46.3z"
		/>
	<path class="st400" d="M7.2,46.3c0,0,24.3-14.1,24.3-14.1c0.1,2.3-0.6,2.7-11.8,8.6c-3,1.5-12.2,5.6-12.2,5.6S7.3,46.4,7.2,46.3z"
		/>
	<path class="st401" d="M7.2,46.3c0,0,24.3-14.1,24.3-14.1c0.1,2.3-0.6,2.7-12,8.6c-3,1.6-12,5.6-12,5.6S7.3,46.4,7.2,46.3z"/>
	<path class="st402" d="M7.2,46.3c0,0,24.3-14.1,24.3-14.1c0.1,2.4-0.6,2.6-12.2,8.7c-3.1,1.6-11.8,5.5-11.8,5.5S7.3,46.3,7.2,46.3z
		"/>
	<path class="st403" d="M7.2,46.3c0,0,24.3-14.1,24.3-14.1c0.1,2.4-0.6,2.6-12.4,8.7c-3.1,1.6-11.7,5.5-11.7,5.5S7.3,46.3,7.2,46.3z
		"/>
	<path class="st404" d="M7.2,46.3c0,0,24.3-14.1,24.3-14.1c0.1,2.4-0.6,2.6-12.6,8.8c-3.1,1.6-11.5,5.4-11.5,5.4S7.3,46.3,7.2,46.3z
		"/>
	<path class="st405" d="M7.2,46.3c0,0,24.3-14.1,24.3-14.1c0.1,2.5-0.6,2.5-12.8,8.8c-3.2,1.7-11.3,5.3-11.3,5.3S7.3,46.3,7.2,46.3z
		"/>
	<path class="st406" d="M7.2,46.3c0,0,24.3-14.1,24.3-14.1c0.1,2.5-0.6,2.5-13,8.9c-3.2,1.7-11.1,5.3-11.1,5.3S7.2,46.3,7.2,46.3z"
		/>
	<path class="st407" d="M7.2,46.3l0.2,0.1c0,0,7.7-3.5,11-5.2c12.5-6.5,13.3-6.4,13.2-8.9L7.2,46.3z"/>
</g>
<g id="face">
	<path id="ML" class="st195" d="M7.2,46.3C7.5,46.1,32,32,32,32l-4.7-2.7L7.9,44.5C7.9,44.5,7,45.1,7.2,46.3z"/>
	<path id="MR" class="st195" d="M56.7,46.3C56.6,46.2,32,32,32,32l4.7-2.7L56.5,45C56.5,45,56.8,45.4,56.7,46.3z"/>
	<path id="TL" class="st195" d="M31.3,3.8C31.7,3.5,32,3.4,32,3.4V32l-4.7-2.7l3.5-24.5C30.8,4.8,31,4,31.3,3.8z"/>
</g>
<linearGradient id="SVGID_3_" gradientUnits="userSpaceOnUse" x1="30.6553" y1="17.3859" x2="32.1079" y2="17.4417">
	<stop  offset="0" style="stop-color:#FFFFFF"/>
	<stop  offset="0.1729" style="stop-color:#F6F7F6"/>
	<stop  offset="0.4538" style="stop-color:#DEE0DF"/>
	<stop  offset="0.65" style="stop-color:#C9CCCB"/>
</linearGradient>
<polyline class="st408" points="31.7,3.5 31.6,31.3 30.1,30.6 31.4,3.7 "/>
<linearGradient id="SVGID_4_" gradientUnits="userSpaceOnUse" x1="19.4027" y1="39.1813" x2="18.7543" y2="38.1436">
	<stop  offset="0.2" style="stop-color:#C9CCCB"/>
	<stop  offset="1" style="stop-color:#FFFFFF"/>
</linearGradient>
<polyline class="st409" points="7.2,46 31.3,31.8 30.2,31 7.2,45.6 "/>
<linearGradient id="SVGID_5_" gradientUnits="userSpaceOnUse" x1="-20.8308" y1="39.2073" x2="-21.5233" y2="38.1075" gradientTransform="matrix(-1 0 0 1 23.7207 0)">
	<stop  offset="0.2" style="stop-color:#C9CCCB"/>
	<stop  offset="0.4415" style="stop-color:#DEE0DF"/>
	<stop  offset="0.7872" style="stop-color:#F6F7F6"/>
	<stop  offset="1" style="stop-color:#FFFFFF"/>
</linearGradient>
<polygon class="st410" points="56.7,45.6 34.1,31.1 32.7,31.8 56.8,46 "/>
<path id="light_2_" class="st411" d="M56.3,44.7c0,0,0.3,0.4,0.4,0.7c-0.1-0.1-19.5-13.7-19.6-13.8c-0.5-0.4-1.4-0.9-2.3-0.7
	c-0.7,0.1-1.3,0.5-2.2,0.8c-0.2,0.1,0-0.1,0-0.1l3.3-2l0.7-0.4L56.3,44.7z M7.9,44.5c0,0-0.5,0.5-0.6,0.9c0.1,0,20.6-14.3,21.3-14.7
	c0.5-0.3,0.2-0.4,0.9,0L28.6,30l-1.3-0.7L7.9,44.5z M30.2,30.7c-0.7-0.5-1-0.7-0.8-0.9c0.1-0.1-0.1-0.7,0-1c0-0.6,0.2-2,2-24.9
	c0,0-0.1,0.1-0.2,0.2c-0.1,0.1-0.3,0.7-0.3,0.7l-3.5,24.4L30.2,30.7z"/>
<path class="st412" d="M31.6,31.3c0,0-2.9-2-3.1-2.3c-0.2-0.2-0.1-0.6-0.1-0.8c0-0.7,2.7-24.2,2.7-24.2c-0.3,0.3-0.3,0.8-0.3,0.8
	l-3.5,24.4L7.9,44.5c0,0-0.3,0.3-0.4,0.5c0.1-0.1,20.7-15.1,20.7-15.1s3,1.5,3.2,1.5C31.5,31.5,31.6,31.3,31.6,31.3z"/>
<path class="st412" d="M36.6,29.2l19.4,15.2c0,0,0.4,0.5,0.5,0.6c-0.1-0.1-19.8-14.9-20.6-15.5L36.6,29.2z"/>
<linearGradient id="thong_1_" gradientUnits="userSpaceOnUse" x1="31.9676" y1="37.3905" x2="31.9676" y2="32.2626">
	<stop  offset="0" style="stop-color:#27343C"/>
	<stop  offset="0.7612" style="stop-color:#FFFFFF"/>
</linearGradient>
<path id="thong" class="st413" d="M31.9,36.9c0,0,0,0.5,0.1,0.5c0.1,0,0.1-0.5,0.1-0.5l0.2-4.6c-0.1,0-0.3,0-0.4,0L31.9,36.9z"/>
<path id="thong_up" class="st195" d="M34.8,30.3l-2.7,1.4l-0.3,0l-2.6-1.4c0,0-0.9-0.5-1-0.4c-0.1,0,1,0.6,1,0.6l2.7,1.5l-0.1,0.3v0
	c0.1,0,0.2,0,0.4,0v0l0.2-0.3l2.5-1.6c0,0,1.1-0.7,1.1-0.7C35.9,29.6,34.8,30.3,34.8,30.3z"/>
<path class="st195" d="M32.3,32.4c0,0-0.6,0-0.6,0L7.2,46.3l0,0l0-0.1L31.4,32c0,0,0.3-0.5,0.3-0.6l0.1-28L32,3.4l0,0l0.4,28.1
	c0,0.1,0.1,0.5,0.1,0.5l24.2,14.1l0,0.1l0,0L32.3,32.4z"/>
<g>
	<path class="st195" d="M84.4,43.9v8.4c0,0.3,0,0.5,0.1,0.6c0.1,0.2,0.3,0.3,0.6,0.3c0.1,0,0.3,0,0.5,0.1v0.4
		c-0.8-0.1-1.4-0.1-1.9-0.1c-0.5,0-1.2,0-1.9,0.1v-0.4c0.4,0,0.7-0.1,0.9-0.1c0.2-0.1,0.3-0.2,0.4-0.4c0-0.1,0-0.2,0-0.4v-8.4h-0.8
		c-0.6,0-1.1,0.2-1.4,0.6c-0.2,0.2-0.3,0.7-0.5,1.3H80l0.4-2.3h6.7l0.4,2.3h-0.4c-0.2-0.6-0.3-1-0.5-1.3c-0.2-0.2-0.4-0.4-0.6-0.5
		c-0.2-0.1-0.4-0.1-0.7-0.1H84.4z"/>
	<path class="st195" d="M88.1,43.9v-0.3c0.8-0.1,1.6-0.2,2.3-0.4v4c0.5-0.7,1.1-1,1.9-1c0.5,0,0.9,0.1,1.3,0.4
		c0.4,0.3,0.7,0.7,0.8,1.2c0.1,0.3,0.1,0.6,0.1,1v3.7c0,0.3,0,0.4,0.1,0.5c0.1,0.2,0.4,0.3,1,0.3v0.3c-0.7-0.1-1.2-0.1-1.7-0.1
		c-0.5,0-1,0-1.7,0.1v-0.3c0.3,0,0.5-0.1,0.7-0.1c0.2-0.1,0.2-0.2,0.3-0.3c0-0.1,0-0.2,0-0.3v-3.7c0-0.6-0.1-1-0.2-1.3
		c-0.2-0.4-0.6-0.6-1.1-0.6c-0.5,0-1,0.2-1.3,0.6c-0.2,0.3-0.3,0.7-0.3,1.3v3.7c0,0.2,0,0.4,0.1,0.5c0.1,0.2,0.4,0.3,0.9,0.3v0.3
		c-0.6-0.1-1.2-0.1-1.6-0.1s-1,0-1.7,0.1v-0.3c0.4,0,0.6-0.1,0.8-0.1c0.2-0.1,0.3-0.2,0.3-0.4c0-0.1,0-0.2,0-0.4v-7.7
		c0-0.3,0-0.5-0.1-0.6c-0.1-0.2-0.3-0.2-0.5-0.3C88.4,43.9,88.3,43.9,88.1,43.9z"/>
	<path class="st195" d="M101.8,51.2h0.6c-0.1,0.6-0.3,1.1-0.6,1.5c-0.5,0.7-1.2,1-2.2,1c-1,0-1.7-0.3-2.2-1
		c-0.6-0.7-0.8-1.6-0.8-2.8c0-1.1,0.3-2,0.8-2.7c0.5-0.7,1.2-1,2.1-1c0.7,0,1.3,0.2,1.8,0.7c0.6,0.6,1,1.6,1,2.9h-4.5
		c0,1,0.1,1.7,0.3,2.1c0.3,0.9,0.9,1.3,1.7,1.3c0.7,0,1.3-0.3,1.6-1C101.6,52,101.7,51.6,101.8,51.2z M101.1,49.2
		c-0.1-1.8-0.6-2.6-1.6-2.6c-1,0-1.6,0.9-1.7,2.6H101.1z"/>
	<path class="st195" d="M108.1,53.7v-9c0-0.3,0-0.5-0.1-0.6c-0.1-0.2-0.3-0.2-0.5-0.3c-0.1,0-0.3,0-0.5,0v-0.3
		c0.8-0.1,1.6-0.2,2.3-0.4v4.2c0.2-0.3,0.4-0.6,0.6-0.7c0.3-0.3,0.8-0.5,1.3-0.5c0.9,0,1.5,0.4,2.1,1.1c0.5,0.7,0.8,1.6,0.8,2.7
		c0,1.1-0.3,2-0.8,2.7c-0.5,0.7-1.2,1-2.1,1c-0.9,0-1.6-0.4-2-1.3l-0.7,1.4H108.1z M111.1,46.6c-1.2,0-1.8,1.1-1.8,3.4
		c0,2.2,0.6,3.3,1.7,3.3c1.2,0,1.7-1.1,1.7-3.3C112.8,47.7,112.2,46.6,111.1,46.6z"/>
	<path class="st195" d="M120.5,51.2h0.6c-0.1,0.6-0.3,1.1-0.6,1.5c-0.5,0.7-1.2,1-2.2,1c-1,0-1.7-0.3-2.2-1
		c-0.6-0.7-0.8-1.6-0.8-2.8c0-1.1,0.3-2,0.8-2.7c0.5-0.7,1.2-1,2.1-1c0.7,0,1.3,0.2,1.8,0.7c0.6,0.6,1,1.6,1,2.9h-4.5
		c0,1,0.1,1.7,0.3,2.1c0.3,0.9,0.9,1.3,1.7,1.3c0.7,0,1.3-0.3,1.6-1C120.4,52,120.5,51.6,120.5,51.2z M119.9,49.2
		c-0.1-1.8-0.6-2.6-1.6-2.6c-1,0-1.6,0.9-1.7,2.6H119.9z"/>
	<path class="st195" d="M122.6,53.7v-2.6l0.3,0c0.1,0.4,0.2,0.8,0.3,1.1c0.2,0.3,0.4,0.5,0.7,0.7c0.3,0.2,0.6,0.3,1,0.3
		c0.5,0,0.9-0.1,1.2-0.4c0.3-0.3,0.4-0.6,0.4-1c0-0.4-0.2-0.7-0.5-0.9c-0.2-0.1-0.6-0.3-1.1-0.6c-0.6-0.3-1-0.5-1.1-0.5
		c-0.7-0.4-1-0.9-1-1.6c0-0.6,0.2-1.1,0.6-1.5c0.4-0.4,1-0.6,1.7-0.6c0.6,0,1.1,0.2,1.6,0.5l0.3-0.6h0.3v2.4h-0.3
		c-0.1-1.2-0.7-1.8-1.6-1.8c-0.4,0-0.8,0.1-1.1,0.4c-0.2,0.2-0.4,0.5-0.4,0.8c0,0.3,0.1,0.5,0.3,0.7c0.1,0.1,0.5,0.3,1,0.5
		c0.1,0,0.4,0.2,1,0.4c0.5,0.2,0.9,0.4,1.1,0.7c0.3,0.3,0.5,0.7,0.5,1.2c0,0.6-0.2,1.1-0.6,1.5c-0.5,0.4-1.1,0.7-1.8,0.7
		c-0.7,0-1.3-0.2-1.8-0.6l-0.4,0.7H122.6z"/>
	<path class="st195" d="M132.7,52.8v0.5c-0.5,0.3-1,0.5-1.5,0.5c-0.8,0-1.3-0.3-1.5-0.9c-0.1-0.3-0.2-0.7-0.2-1.4c0-0.1,0-0.2,0-0.3
		l0.1-4.3h-1v-0.5c0.3,0,0.5-0.1,0.7-0.2c0.6-0.3,0.9-1,1.2-2.1h0.4l0,2.2h1.8v0.6h-1.8l0,4.4c0,0.6,0,1,0.1,1.3
		c0.1,0.3,0.4,0.5,0.8,0.5C131.9,53.1,132.2,53,132.7,52.8z"/>
	<path class="st195" d="M140.4,46.2c0.9,0,1.6,0.4,2.1,1.1c0.5,0.7,0.8,1.6,0.8,2.7c0,1-0.3,1.9-0.8,2.6c-0.5,0.7-1.3,1.1-2.2,1.1
		c-0.9,0-1.7-0.4-2.2-1.1c-0.5-0.7-0.8-1.6-0.8-2.6c0-1.1,0.3-2,0.8-2.7C138.7,46.5,139.5,46.2,140.4,46.2z M140.3,46.6
		c-0.4,0-0.8,0.2-1.1,0.6c-0.4,0.5-0.6,1.5-0.6,2.8c0,2.2,0.6,3.4,1.7,3.4c0.5,0,0.8-0.2,1.1-0.6c0.4-0.5,0.6-1.4,0.6-2.7
		C142,47.7,141.5,46.6,140.3,46.6z"/>
	<path class="st195" d="M144.3,46.7v-0.3c0.8-0.1,1.4-0.2,2-0.4c0.1,0.5,0.1,1,0.1,1.4c0.1-0.3,0.3-0.6,0.5-0.8
		c0.4-0.4,0.8-0.6,1.3-0.6c0.4,0,0.8,0.1,1,0.4c0.2,0.2,0.3,0.5,0.3,0.8c0,0.2-0.1,0.4-0.2,0.5c-0.1,0.1-0.3,0.2-0.5,0.2
		c-0.2,0-0.3,0-0.4-0.1c-0.1-0.1-0.2-0.2-0.2-0.4c0,0,0-0.1,0-0.2c0-0.1,0-0.2,0-0.3c0-0.1,0-0.2-0.1-0.3c-0.1-0.1-0.2-0.1-0.3-0.1
		c-0.2,0-0.4,0.1-0.6,0.2c-0.2,0.2-0.3,0.4-0.5,0.7c-0.2,0.4-0.2,0.9-0.2,1.6v3.2c0,0.3,0,0.4,0.1,0.5c0.1,0.2,0.4,0.3,1,0.3v0.3
		c-0.7-0.1-1.2-0.1-1.7-0.1c-0.5,0-1,0-1.7,0.1v-0.3c0.3,0,0.6-0.1,0.8-0.1c0.2-0.1,0.3-0.2,0.3-0.4c0-0.1,0-0.2,0-0.4v-4.7
		c0-0.3,0-0.5,0-0.6c0-0.2-0.2-0.4-0.5-0.4C144.8,46.8,144.6,46.7,144.3,46.7z"/>
	<path class="st195" d="M154,46.8v-0.3c0.8-0.1,1.5-0.3,2-0.5c0.1,0.3,0.1,0.8,0.2,1.3c0.5-0.8,1.2-1.2,2.1-1.2
		c0.8,0,1.4,0.3,1.9,0.9c0.2,0.4,0.4,0.9,0.4,1.7v3.7c0,0.3,0,0.4,0.1,0.5c0.1,0.2,0.4,0.3,1,0.3v0.3c-0.7-0.1-1.2-0.1-1.7-0.1
		c-0.5,0-1,0-1.6,0.1v-0.3c0.3,0,0.5-0.1,0.7-0.1c0.2-0.1,0.2-0.2,0.3-0.3c0-0.1,0-0.2,0-0.3v-3.7c0-0.6-0.1-1-0.2-1.3
		c-0.2-0.4-0.6-0.6-1.1-0.6c-0.5,0-1,0.2-1.3,0.6c-0.2,0.3-0.3,0.7-0.3,1.3v3.7c0,0.2,0,0.4,0.1,0.5c0.1,0.2,0.4,0.3,0.9,0.3v0.3
		c-0.6-0.1-1.2-0.1-1.6-0.1c-0.4,0-1,0-1.7,0.1v-0.3c0.4,0,0.6-0.1,0.8-0.1c0.2-0.1,0.3-0.2,0.3-0.4c0-0.1,0-0.2,0-0.4v-4.7
		c0-0.3,0-0.5,0-0.5c0-0.2-0.2-0.4-0.4-0.4C154.5,46.8,154.3,46.8,154,46.8z"/>
	<path class="st195" d="M165.5,46.2c0.9,0,1.6,0.4,2.1,1.1c0.5,0.7,0.8,1.6,0.8,2.7c0,1-0.3,1.9-0.8,2.6c-0.5,0.7-1.3,1.1-2.2,1.1
		c-0.9,0-1.7-0.4-2.2-1.1c-0.5-0.7-0.8-1.6-0.8-2.6c0-1.1,0.3-2,0.8-2.7C163.9,46.5,164.6,46.2,165.5,46.2z M165.5,46.6
		c-0.4,0-0.8,0.2-1.1,0.6c-0.4,0.5-0.6,1.5-0.6,2.8c0,2.2,0.6,3.4,1.7,3.4c0.5,0,0.8-0.2,1.1-0.6c0.4-0.5,0.6-1.4,0.6-2.7
		C167.2,47.7,166.6,46.6,165.5,46.6z"/>
	<path class="st195" d="M173.5,52.8v0.5c-0.5,0.3-1,0.5-1.5,0.5c-0.8,0-1.3-0.3-1.5-0.9c-0.1-0.3-0.2-0.7-0.2-1.4c0-0.1,0-0.2,0-0.3
		l0.1-4.3h-1v-0.5c0.3,0,0.5-0.1,0.7-0.2c0.6-0.3,0.9-1,1.2-2.1h0.4l0,2.2h1.8v0.6h-1.8l0,4.4c0,0.6,0,1,0.1,1.3
		c0.1,0.3,0.4,0.5,0.8,0.5C172.8,53.1,173.1,53,173.5,52.8z"/>
	<path class="st195" d="M174.3,43.9v-0.3c0.8-0.1,1.6-0.2,2.3-0.4v4c0.5-0.7,1.1-1,1.9-1c0.5,0,0.9,0.1,1.3,0.4
		c0.4,0.3,0.7,0.7,0.8,1.2c0.1,0.3,0.1,0.6,0.1,1v3.7c0,0.3,0,0.4,0.1,0.5c0.1,0.2,0.4,0.3,1,0.3v0.3c-0.7-0.1-1.2-0.1-1.7-0.1
		c-0.5,0-1,0-1.7,0.1v-0.3c0.3,0,0.5-0.1,0.7-0.1c0.2-0.1,0.2-0.2,0.3-0.3c0-0.1,0-0.2,0-0.3v-3.7c0-0.6-0.1-1-0.2-1.3
		c-0.2-0.4-0.6-0.6-1.1-0.6c-0.5,0-1,0.2-1.3,0.6c-0.2,0.3-0.3,0.7-0.3,1.3v3.7c0,0.2,0,0.4,0.1,0.5c0.1,0.2,0.4,0.3,0.9,0.3v0.3
		c-0.6-0.1-1.2-0.1-1.6-0.1s-1,0-1.7,0.1v-0.3c0.4,0,0.6-0.1,0.8-0.1c0.2-0.1,0.3-0.2,0.3-0.4c0-0.1,0-0.2,0-0.4v-7.7
		c0-0.3,0-0.5-0.1-0.6c-0.1-0.2-0.3-0.2-0.5-0.3C174.6,43.9,174.5,43.9,174.3,43.9z"/>
	<path class="st195" d="M185,46.1v6.4c0,0.3,0,0.4,0.1,0.5c0.1,0.2,0.4,0.3,1,0.3v0.3c-0.7-0.1-1.3-0.1-1.7-0.1c-0.4,0-1,0-1.7,0.1
		v-0.3c0.4,0,0.6-0.1,0.8-0.1c0.2-0.1,0.3-0.2,0.3-0.4c0-0.1,0-0.2,0-0.4v-4.8c0-0.3,0-0.5-0.1-0.6c-0.1-0.1-0.3-0.2-0.5-0.3
		c-0.1,0-0.3,0-0.5,0v-0.3C183.5,46.4,184.2,46.3,185,46.1z M184.3,43.4c0.3,0,0.5,0.1,0.6,0.2c0.2,0.2,0.3,0.4,0.3,0.6
		c0,0.2-0.1,0.4-0.3,0.6c-0.1,0.2-0.3,0.2-0.6,0.2c-0.2,0-0.4-0.1-0.6-0.2c-0.2-0.2-0.2-0.4-0.2-0.6c0-0.2,0.1-0.4,0.2-0.6
		C183.8,43.5,184,43.4,184.3,43.4z"/>
	<path class="st195" d="M186.9,46.8v-0.3c0.8-0.1,1.5-0.3,2-0.5c0.1,0.3,0.1,0.8,0.2,1.3c0.5-0.8,1.2-1.2,2.1-1.2
		c0.8,0,1.4,0.3,1.9,0.9c0.2,0.4,0.4,0.9,0.4,1.7v3.7c0,0.3,0,0.4,0.1,0.5c0.1,0.2,0.4,0.3,1,0.3v0.3c-0.7-0.1-1.2-0.1-1.7-0.1
		c-0.5,0-1,0-1.6,0.1v-0.3c0.3,0,0.5-0.1,0.7-0.1c0.2-0.1,0.2-0.2,0.3-0.3c0-0.1,0-0.2,0-0.3v-3.7c0-0.6-0.1-1-0.2-1.3
		c-0.2-0.4-0.6-0.6-1.1-0.6c-0.5,0-1,0.2-1.3,0.6c-0.2,0.3-0.3,0.7-0.3,1.3v3.7c0,0.2,0,0.4,0.1,0.5c0.1,0.2,0.4,0.3,0.9,0.3v0.3
		c-0.6-0.1-1.2-0.1-1.6-0.1c-0.4,0-1,0-1.7,0.1v-0.3c0.4,0,0.6-0.1,0.8-0.1c0.2-0.1,0.3-0.2,0.3-0.4c0-0.1,0-0.2,0-0.4v-4.7
		c0-0.3,0-0.5,0-0.5c0-0.2-0.2-0.4-0.4-0.4C187.5,46.8,187.3,46.8,186.9,46.8z"/>
	<path class="st195" d="M200,46.6h2v0.6l-1.5,0c0.2,0.4,0.4,0.8,0.4,1.3c0,0.8-0.3,1.4-1,1.9c-0.3,0.2-0.8,0.4-1.6,0.6
		c-0.7,0.2-1.1,0.3-1.3,0.4c-0.2,0.1-0.3,0.2-0.3,0.4c0,0.2,0.1,0.3,0.2,0.3c0.1,0.1,0.5,0.1,1.2,0.2c1.1,0.1,1.9,0.2,2.4,0.4
		c0.4,0.2,0.7,0.4,0.9,0.8c0.2,0.3,0.2,0.5,0.2,0.9c0,0.5-0.1,0.9-0.4,1.2c-0.3,0.4-0.7,0.7-1.3,0.9c-0.5,0.2-1,0.2-1.6,0.2
		c-0.9,0-1.6-0.2-2.2-0.5c-0.3-0.2-0.5-0.4-0.7-0.7c-0.2-0.3-0.3-0.6-0.3-0.9c0-0.7,0.5-1.3,1.5-1.6c-0.5-0.2-0.8-0.5-0.8-0.9
		c0-0.6,0.5-1,1.6-1.2c-0.4-0.1-0.7-0.3-1-0.5c-0.5-0.4-0.8-1-0.8-1.7c0-0.7,0.2-1.3,0.7-1.7c0.5-0.4,1.1-0.6,2-0.6
		C199.1,46.2,199.6,46.3,200,46.6z M198.2,53.3c-0.7,0-1.3,0.1-1.8,0.4c-0.4,0.2-0.6,0.5-0.6,0.9c0,0.5,0.2,0.8,0.7,1.1
		c0.5,0.3,1.1,0.4,1.8,0.4c0.7,0,1.3-0.1,1.8-0.4c0.4-0.2,0.6-0.6,0.6-1.1c0-0.5-0.2-0.8-0.7-1C199.6,53.4,199,53.3,198.2,53.3z
		 M198.4,46.6c-0.5,0-0.9,0.2-1.1,0.5c-0.3,0.3-0.4,0.8-0.4,1.4c0,0.5,0.1,1,0.3,1.3c0.2,0.4,0.6,0.6,1.1,0.6c0.5,0,0.9-0.2,1.1-0.6
		c0.2-0.4,0.3-0.8,0.3-1.3C199.8,47.2,199.4,46.6,198.4,46.6z"/>
	<path class="st195" d="M204.1,52c0.2,0,0.4,0.1,0.6,0.3c0.2,0.2,0.3,0.4,0.3,0.6c0,0.2-0.1,0.4-0.3,0.6c-0.2,0.2-0.4,0.3-0.6,0.3
		c-0.2,0-0.4-0.1-0.6-0.3c-0.2-0.2-0.3-0.4-0.3-0.6c0-0.2,0.1-0.4,0.3-0.6C203.7,52,203.9,52,204.1,52z"/>
</g>
<g>
	<path class="st195" d="M190.7,25v-1.5h6.4V25H190.7z"/>
	<g>
		<path class="st195" d="M83.8,14.5l-0.6,14.9c0,0.1,0,0.2,0,0.3c0,1.3,0.4,1.5,2.4,1.7V32c-1.5-0.1-2-0.1-2.8-0.1
			c-0.8,0-1.4,0-2.9,0.1v-0.7c2-0.1,2.3-0.4,2.4-1.9l0.6-14.1c0-0.1,0-0.1,0-0.2c0-1.3-0.4-1.6-2.4-1.7v-0.7
			c1.1,0.1,1.6,0.1,2.4,0.1c1.1,0,1.6,0,2.7-0.1l5.3,14.6l5.4-14.6c1.3,0.1,1.9,0.1,2.8,0.1c0.7,0,1.2,0,2.3-0.1v0.7
			c-2,0.1-2.4,0.4-2.4,1.7v0.2l0.3,14.1c0,1.6,0.3,1.8,2.4,1.9V32c-1.8-0.2-2.5-0.2-3.6-0.2c-1.1,0-1.8,0.1-3.6,0.2v-0.7
			c2-0.1,2.4-0.4,2.4-1.8v-0.1l-0.3-14.9l-4.7,12.8l-0.3,0.9l-0.4,1.1l-0.4,1.1l-0.3,0.9H90l-0.3-0.9l-0.4-1.1l-0.4-1.1l-0.3-1
			L83.8,14.5z"/>
		<path class="st195" d="M109.2,31.3c-2.6,0-3.8-2-3.8-6.5h8.6c-0.1-4.4-1.9-6.8-5.3-6.8c-3.5,0-5.6,2.8-5.6,7.2s2.2,7,5.9,7
			c2.8,0,4.7-1.8,5-4.7h-1.2C112.5,30,111.2,31.3,109.2,31.3z M105.4,23.8c0.3-3.3,1.4-5,3.2-5c1.9,0,2.8,1.6,3,5H105.4z"/>
		<path class="st195" d="M115.7,19.1v-0.5c1.6-0.1,2.6-0.3,3.8-0.7c0.1,1.1,0.2,1.5,0.3,2.4v0.3c0.6-1.6,1.9-2.6,3.4-2.6
			c1.4,0,2.5,0.9,2.5,2.3c0,0.8-0.5,1.4-1.2,1.4c-0.7,0-1.2-0.4-1.2-1c0-0.1,0-0.2,0.1-0.3l0.1-0.3c0-0.1,0-0.2,0-0.3
			c0-0.4-0.3-0.7-0.9-0.7c-1.5,0-2.4,1.8-2.4,4.7v6c0,1.2,0.3,1.5,2,1.6V32c-1.6-0.1-2.2-0.2-3.2-0.2c-1,0-1.6,0-3.2,0.2v-0.6
			c1.8-0.1,2.1-0.3,2.1-1.6V21v-0.5c0-1.2-0.2-1.4-1.7-1.4H115.7z"/>
		<path class="st195" d="M136.6,17.8v4.7h-0.6c-0.5-2.5-1.6-3.7-3.3-3.7c-2.2,0-3.4,2.3-3.4,6.4c0,4,1.1,6.1,3.3,6.1
			c1.8,0,2.8-1.3,3.2-3.8h1.2c-0.4,3.1-2,4.7-4.6,4.7c-3.3,0-5.6-2.8-5.6-7c0-4.3,2.3-7.2,5.7-7.2c1.2,0,2,0.3,2.9,1.2l0.8-1.5
			H136.6z"/>
		<path class="st195" d="M145,31.3c-2.6,0-3.8-2-3.8-6.5h8.6c-0.1-4.4-1.9-6.8-5.3-6.8c-3.5,0-5.6,2.8-5.6,7.2s2.2,7,5.9,7
			c2.8,0,4.7-1.8,5-4.7h-1.2C148.3,30,147.1,31.3,145,31.3z M141.3,23.8c0.3-3.3,1.4-5,3.2-5c1.9,0,2.8,1.6,3,5H141.3z"/>
		<path class="st195" d="M163.2,29.1V12.5c-1.4,0.4-2.7,0.6-4.3,0.8v0.5c1.8,0,2,0.2,2,1.7v5c-1.1-1.7-1.9-2.2-3.5-2.2
			c-3.1,0-5.2,2.9-5.2,7c0,4.1,2.2,7,5.3,7c1.6,0,2.8-0.7,3.6-2.4c0.1,1.1,0.1,1.2,0.4,2.3c1.2-0.4,1.7-0.5,3.4-0.7l0.4-0.1V31
			C163.4,31,163.2,30.8,163.2,29.1z M157.8,31.5c-2.1,0-3.2-2.2-3.2-6.3c0-4.2,1-6.2,3.1-6.2c2.1,0,3.2,2.2,3.2,6.4
			C160.9,29.4,159.8,31.5,157.8,31.5z"/>
		<path class="st195" d="M172.5,31.3c-2.6,0-3.8-2-3.8-6.5h8.6c-0.1-4.4-1.9-6.8-5.3-6.8c-3.5,0-5.6,2.8-5.6,7.2s2.2,7,5.9,7
			c2.8,0,4.7-1.8,5-4.7h-1.2C175.8,30,174.5,31.3,172.5,31.3z M168.7,23.8c0.3-3.3,1.4-5,3.2-5c1.9,0,2.8,1.6,3,5H168.7z"/>
		<path class="st195" d="M179.7,32.3v-4.8l0.6,0c0.5,2.6,1.7,3.9,3.7,3.9c1.7,0,3-1.1,3-2.6c0-1-0.5-1.6-2-2.3L184,26l-1.3-0.6
			c-2.1-1-2.8-1.8-2.8-3.5c0-2.3,1.8-3.8,4.3-3.8c1.1,0,2,0.3,2.9,0.9l0.5-1.2h0.5v4.5h-0.7c-0.3-2.3-1.2-3.4-3-3.4
			c-1.5,0-2.7,1-2.7,2.4c0,1.2,0.4,1.5,3,2.7l1.2,0.5c2.2,0.9,3,1.9,3,3.6c0,2.4-1.9,4.1-4.6,4.1c-1.3,0-2.4-0.3-3.5-1.2l-0.7,1.3
			H179.7z"/>
	</g>
	<g>
		<path class="st195" d="M210.7,17.5c0-1.5-0.6-2.8-1.7-3.7c-1-0.7-2.1-1-4-1h-7.6v0.7c2.1,0.1,2.4,0.3,2.4,1.9v13.9
			c0,1.6-0.2,1.8-2.4,1.9V32h7.3c2.1,0,3.3-0.3,4.5-1c1.4-0.9,2.4-2.7,2.4-4.5c0-1.6-0.7-3-1.8-3.8c-0.6-0.5-1.2-0.7-2.3-0.9
			C209.6,20.9,210.7,19.5,210.7,17.5z M202.2,13.7h2.4c2.4,0,3.5,1.2,3.5,3.9c0,1.3-0.3,2.3-0.9,3c-0.6,0.7-1.4,0.9-3,0.9h-2V13.7z
			 M205,22.4c1.5,0,2.4,0.3,3,0.9c0.7,0.7,1,1.9,1,3.3c0,2.9-1.4,4.5-4,4.5h-1c-1.5,0-1.8-0.2-1.8-1.5v-7.2H205z"/>
		<path class="st195" d="M220,31.3c-2.6,0-3.8-2-3.8-6.5h8.6c-0.1-4.4-1.9-6.8-5.3-6.8c-3.5,0-5.6,2.8-5.6,7.2s2.2,7,5.9,7
			c2.8,0,4.7-1.8,5-4.7h-1.2C223.3,30,222.1,31.3,220,31.3z M216.3,23.8c0.3-3.3,1.4-5,3.2-5c1.9,0,2.8,1.6,3,5H216.3z"/>
		<path class="st195" d="M226.3,19.2v-0.5c1.7-0.2,2.6-0.5,3.8-0.9c0.1,0.7,0.2,1.4,0.3,2.5c1-1.6,2.2-2.2,3.9-2.2
			c1.7,0,3.2,0.9,3.8,2.3c0.3,0.7,0.4,1.5,0.4,2.6v6.9c0,1.2,0.3,1.5,2,1.6V32c-1.5-0.1-2.1-0.2-3.1-0.2c-1.1,0-1.6,0-3.1,0.2v-0.6
			c1.6-0.1,1.9-0.3,1.9-1.5v-7c0-2.5-0.7-3.5-2.6-3.5c-2,0-3,1.2-3,3.6v7c0,1.2,0.4,1.4,1.9,1.5V32c-1.5-0.1-2.1-0.2-3.1-0.2
			c-1,0-1.6,0-3.1,0.2v-0.6c1.8-0.1,2-0.3,2-1.6V21v-0.4c0-1.2-0.2-1.4-1.6-1.4C226.6,19.2,226.5,19.2,226.3,19.2z"/>
		<path class="st195" d="M241.7,32l7.8-12.8h-3.5c-1.9,0-2.3,0.4-3.4,3H242l0.7-3.7h9.9l-7.8,12.8h3.4c2,0,2.8-0.8,3.6-3.4h0.6
			l-0.7,4.1H241.7z"/>
	</g>
</g>
</svg>
